<?xml version="1.0" encoding="utf-8"?>
<!-- Generator: Adobe Illustrator 22.0.1, SVG Export Plug-In . SVG Version: 6.00 Build 0)  -->
<svg version="1.0" id="GraphicMama" xmlns="http://www.w3.org/2000/svg" xmlns:xlink="http://www.w3.org/1999/xlink" x="0px"
	 y="0px" viewBox="0 0 770.3 2099.9" enable-background="new 0 0 770.3 2099.9" xml:space="preserve">
<g>
	<path fill="#9E842B" d="M58.8,1876.9c-2.5,4-8.4,3.6-10.4,7.9c-3.1,6.5,1.3,15.7,3.2,22.1c4.8,16.1,10.5,31.9,15.8,47.9
		c9.6,28.9,14.9,60.6,27.5,88.2c25.5,55.7,118.2,75.8,164.9,36.3c22.8-19.3,11.6-53.5,1-77.1c-7.9-17.6-25.4-32.5-36.1-49
		c-12.3-18.8-15.4-43-25.3-63.4c-8.4-17.4-20.1-33.5-30.3-49.8c-4.7-7.4-5.1-11.8-11.5-11.9c-8.5-0.2-24.8,12.3-32.3,16
		C103,1854.9,80.9,1865.9,58.8,1876.9z"/>
	<path fill="#A86D00" d="M260.8,2002.1c-1.5-3.2-3.2-6.4-5.3-9.5c1.9,6.4,3.2,13.1,3.8,20.2c2.8,35.4-24.6,55.4-56.4,62.4
		c-33.3,7.3-61.6-7-82.7-32.4c-1-1.2-2-2.5-3-3.8c-2.3-1.5-4.2-3.7-5.4-6.7c-0.2-0.6-0.5-1.2-0.8-1.8c-9.9-14.4-18.2-29.9-28-44.3
		c-3.5-4.6-6.9-9.1-10.3-13.7c6.6,23.7,12,48.4,22.1,70.4c25.5,55.7,118.2,75.8,164.9,36.3C282.5,2060,271.4,2025.7,260.8,2002.1z"
		/>
	<path opacity="0.2" d="M260.8,2002.1c-7.9-17.6-25.4-32.5-36.1-49c-12.3-18.8-15.4-43-25.3-63.4c-8.4-17.4-20.1-33.5-30.3-49.8
		c-4.7-7.4-5.1-11.8-11.5-11.9c-8.5-0.2-24.8,12.3-32.3,16c-22.1,11-44.2,21.9-66.4,32.9c-2.5,4-8.4,3.6-10.4,7.9
		c-2.9,6.2,1,14.9,3,21.2c14.5,8.6,29.6,14.9,47.2,16.3c17.4,1.4,35.5-0.9,51.5,7.5c8.2,4.3,14.7,11.2,21.7,17.2
		c7.5,6.5,15.6,10.2,24.8,13.8c15.3,5.9,29.2,12.3,38.9,26.2c19.2,27.5,3.4,57.1-21.7,73.7c-26.2,17.3-62,20.8-92.4,14.4
		c38.8,29.6,102.3,34.7,138.4,4.2C282.5,2060,271.4,2025.7,260.8,2002.1z"/>
	<path fill="#A86D00" d="M195.7,1940.7c-0.8-0.3-1.3-0.9-1.4-1.8c-0.2-5.8-1.3-13.2-8.2-14.6c-1-0.2-1.5-1.3-1.3-2.2
		c1.6-8.1,0.9-16.9-8.9-18.9c-1.2-0.2-1.6-1.6-1.1-2.7c2.8-6,3.1-15.6-5.9-16.4c-1.1-0.1-2.1-1-1.8-2.3c3-10.5-8.5-18.9-20.7-22.4
		c-19,11.3-34.6,28-55.2,36.6c-4.6,7.9-11.4,17.7,1.7,20.6c0.9,0.2,1.7,1.3,1.3,2.2c-3,7.6-1.4,22.5,10,20.3c1.4-0.3,3,1.2,2.1,2.6
		c-1.9,3.1-6.4,16.5,2,15.1c1.2-0.2,2.7,0.8,2.3,2.2c-1,3.1-3.6,14.3,3.9,12.8c1.3-0.3,2.6,0.8,2.3,2.2c-1.1,4.4-3.3,12,2.3,14.1
		c3.1,1.2,7.4-0.4,10.3-1.4c7.6-2.5,14.7-6.4,21.8-10c7.6-3.9,15.4-6.6,23.5-9.2c7-2.2,15.6-3.8,21.5-8.4
		C203.4,1953.9,206.3,1944.5,195.7,1940.7z"/>
	<path opacity="0.2" d="M195.7,1940.7c-0.8-0.3-1.3-0.9-1.4-1.8c-0.2-5.8-1.3-13.2-8.2-14.6c-1-0.2-1.5-1.3-1.3-2.2
		c1.6-8.1,0.9-16.9-8.9-18.9c-1.2-0.2-1.6-1.6-1.1-2.7c2.8-6,3.1-15.6-5.9-16.4c-1.1-0.1-2.1-1-1.8-2.3c3-10.5-8.5-18.9-20.7-22.4
		c-19,11.3-34.6,28-55.2,36.6c-1.1,1.9-2.4,3.9-3.4,5.9c5,0,10.4,0.9,14.8,0.2c5.9-0.8,5.9,8.4,0.1,9.3c-5.5,0.7-10.8,2.4-16.2,1.8
		c1.1,1.4,3.1,2.6,6.4,3.3c0.9,0.2,1.7,1.3,1.3,2.2c-0.4,1.1-0.7,2.3-1,3.7c2.8-1.4,5.4-2.6,7.2-3.6c14.1-8,25.8-21.6,42.3-24.5
		c7.2-1.3,10.4,9.7,3.2,11c-14.6,2.6-25,14.7-37.3,22c-4.3,2.6-8.8,5-13.1,7.6c-0.1,0.1-0.3,0.2-0.4,0.3c1.8,2.9,4.7,4.7,9.2,3.8
		c0.7-0.1,1.5,0.2,1.9,0.7c16.1-12.6,32.9-24.6,52.9-29.7c7.1-1.8,10.3,9.2,3.2,11c-22.2,5.6-40.3,20.4-57.9,34.6
		c0.7,0.9,1.9,1.4,3.8,1.2c16.8-13,38.1-20.6,57.8-27.6c7-2.5,10.1,8.6,3.2,11c-20.3,7.2-42.6,15.1-58.9,29.9c0,0.1,0,0.1,0,0.2
		c0.7,1.3,2.1,2,4.3,1.6c1.1-0.2,2.1,0.4,2.3,1.4c19-13.1,41.7-21.3,62.8-29.7c6.9-2.7,9.9,8.3,3.2,11
		c-22.1,8.8-46.6,17.4-65.5,32.5c0.5,0.4,1.1,0.8,1.8,1.1c3.1,1.2,7.4-0.4,10.3-1.4c7.6-2.5,14.7-6.4,21.8-10
		c7.6-3.9,15.4-6.6,23.5-9.2c7-2.2,15.6-3.8,21.5-8.4C203.4,1953.9,206.3,1944.5,195.7,1940.7z"/>
	<path fill="#9E842B" d="M327.1,1718.6c-1.9-3.3-32.4,36.6-34.7,42.2c-7.8,19-9.6,40-12.5,60.1c-1.6,10.8-7.3,35.2-3.4,45.8
		c4.2,11.3,26.5,15.8,36.6,18.7c8.7,2.6,20.8,8.7,30,7.5c8.1-1,12.7-10.6,20.8-10.6c17.6,0,30.7,22.9,42.9,32.1
		c25.2,19,102.2,32,133,23.6c34-9.3,19.5-56.8-7.5-79.6c-16.7-14.2-39.1-16.3-57.6-26.9c-15.5-8.9-30.5-25.8-41.9-39.4
		c-11.9-14.1-19.9-29.4-23.9-47.4c-4.1-18.2,1.3-50.6-13.9-63.7c-12.1-10.4-44.7-15.7-57.4-5.1c-7.8,6.5-17.3,36-10.4,45
		C325.9,1719.6,322.6,1717.4,327.1,1718.6C326.9,1718.3,322.7,1717.4,327.1,1718.6z"/>
	<path opacity="0.2" d="M532.4,1858.4c-16.7-14.2-39.1-16.3-57.6-26.9c-15.5-8.9-30.5-25.8-41.9-39.4
		c-11.9-14.1-19.9-29.4-23.9-47.4c-4.1-18.2,1.3-50.6-13.9-63.7c-12.1-10.4-44.7-15.7-57.4-5.1c-7.1,6-15.6,31.1-11.8,42.3
		c-0.7-0.2-1.3-0.3,0.1,0.1c0,0,0,0,0,0.1c0.2,0,0.4,0.1,0.6,0.1c-0.1,0-0.3,0.1-0.5,0.2c0.3,0.8,0.7,1.6,1.2,2.2
		c-0.5-0.5-1.4-1.2-2-1.8c-3.6,2.6-11.6,12.3-18.9,21.8c5.2,4.3,9.7,9.7,15.5,13.4c8.7,5.6,18.1,9.2,28,12.1
		c20.7,6.1,39.1,11.5,54.6,27.3c15.5,15.8,34.2,27.9,53.4,38.7c13.2,7.5,27.5,14,38.4,24.8c11.6,11.6,18.4,28.5,14.7,44.9
		c-2.9,12.8-13.4,20.4-26.3,20.4c-12.3,0-24.3-5.5-35.4-10.3c-17.6-7.6-35.6-14.5-53.5-21.5c-21.9-8.7-43.9-17.1-65.3-26.9
		c-6.8-3.1-13.5-6.3-20.2-9.3c-3.5-1.3-6.9-2.6-10.4-3.9c-4.3,1.7-9.5,1.2-12.8-2.5c-1-1.1-2.1-2.3-3-3.5c-2.5-0.9-4.9-1.9-7.4-2.8
		c-1.3,9.4-2,19.1,0.1,24.8c4.2,11.3,26.5,15.8,36.6,18.7c8.7,2.6,20.8,8.7,30,7.5c8.1-1,12.7-10.6,20.8-10.6
		c17.6,0,30.7,22.9,42.9,32.1c25.2,19,102.2,32,133,23.6C573.9,1928.7,559.4,1881.2,532.4,1858.4z"/>
	<path fill="#A86D00" d="M474.9,1831.4c-15.5-8.9-30.5-25.8-41.9-39.4c-11.9-14.1-19.9-29.4-23.9-47.4c-4.1-18.2,1.3-50.6-13.9-63.7
		c-8.6-7.4-27.7-12.2-42.5-10.5c8.1,16,7.7,37,8.5,54.1c0.5,10,1.5,20.3,3,30.5c1.5,1.8,2.6,3.9,3.3,6.5c0.3,1.3,0.6,2.7,1,4
		c1-1,2.2-1.9,3.6-2.7c0.7-0.4,1.4-0.2,1.9,0.3c1.1-0.4,2.4,1.1,1.8,2.3c-1.6,3.3-3.2,6.4-4,9.5c1.8,6.4,5.6,10.7,12.1,14.5
		c0.8,0.5,1.2,1.8,0.4,2.4c-5.6,4.6-2,10.1,3.2,13.4c0.2,0.1,0.5,0.1,0.7,0.2c2.2,0.2,4.4,1,5.9,2.5c0.8,0.2,1.6,0.2,2.4,0.2
		c0.9,0,1.9,1,1.5,1.9c-0.7,1.8-0.9,3.4-0.8,4.8c0.6,1.4,1.2,3.1,2,4.6c2.5,2.9,7.2,4.2,11.6,4c0.8,0,1.6,0.7,1.6,1.5
		c0,2.6,0.6,4.8,1.6,6.6c2,1.6,3.9,3.2,6,4.6c0.6,0.4,1.3,0.8,1.9,1.2c1.9,0.5,4,0.6,6.3,0.3c0.9-0.1,1.5,0.8,1.6,1.5
		c0.8,8.8,9.7,14.4,18,11.8c0.9-0.3,2.1,0.5,2,1.5c-0.2,2.6,0.4,4.8,1.5,6.6c1,0.8,1.9,1.8,2.6,2.7c1.7,1.2,3.8,1.9,6.1,2.2
		c0.7,0.1,1.4,0.1,2.2,0c15-7.4,32-10.7,46.3-19.2C496.9,1840.7,485.3,1837.4,474.9,1831.4z"/>
	<path fill="#A86D00" d="M559.6,1907.3c-50,23-107.9-1.2-155.1-21.8c-1.5-0.7-2.8-1.6-4-2.7c-11.4-4.7-22.2-11.4-32.8-17.5
		c-2.5-1.4-5-2.7-7.6-3.9c-20.1,2.8-40.2-3.6-58.7-11.2c-7.7-3.2-16.4-7.1-24.4-12.1c-1.7,10.5-2.9,22.2-0.5,28.6
		c4.2,11.3,26.5,15.8,36.6,18.7c8.7,2.6,20.8,8.7,30,7.5c8.1-1,12.7-10.6,20.8-10.6c17.6,0,30.7,22.9,42.9,32.1
		c25.2,19,102.2,32,133,23.6C555.5,1933.7,560.9,1921.5,559.6,1907.3z"/>
	<path opacity="0.2" d="M474.9,1831.4c-15.5-8.9-30.5-25.8-41.9-39.4c-11.9-14.1-19.9-29.4-23.9-47.4c-4.1-18.2,1.3-50.6-13.9-63.7
		c-8.6-7.4-27.7-12.2-42.5-10.5c8.1,16,7.7,37,8.5,54.1c0.5,10,1.5,20.3,3,30.5c1,1.2,1.8,2.6,2.5,4.1c0.3-0.1,0.7-0.2,1-0.2
		c6.5-0.6,7.6,7.4,8.2,13.8c1.2,0,2.4,0.1,3.7,0.3c6.2,0.9,14.3,5.4,20.5,4.1c5-1.1,7.9,4.6,5.9,7.9c0.2,2.6-1.5,5.3-4.9,5.8
		c-4.5,0.6-8.9,2-13.3,3.2c0.7,0.9,1.3,1.9,1.9,2.9c7.9-2.1,16.7-2.3,22.5,0.6c2.3,1.1,3.6,4.8,2,7c-2.7,3.8-7.1,8.7-12,10.8
		c1.1,1.2,2.2,2.3,3.3,3.4c7.9-4.1,17.6-5.9,25.4-4.3c2.1,0.4,4,2.8,3.9,5c-0.5,8.1-5.6,13-12.1,15.5c1.7,1.5,3.5,2.9,5.2,4.4
		c6.3-5.6,13.6-10.2,21.8-12.1c0.8-0.4,1.6-0.5,2.4-0.5c0.3-0.1,0.6-0.1,1-0.2c4.1-0.5,6.2,4.6,4.6,7.7c-3.1,5.8-8.5,12.9-15,17.2
		c0.7,0.5,1.4,1.1,2.1,1.6c7.2-6.4,16.2-11.3,25.7-12.1c3.8-0.3,6.5,4.5,4.6,7.7c-4.2,6.8-10.4,10.9-16.8,14.9
		c0.7,0.5,1.4,1.1,2,1.6c15.4-8,33.1-11.3,48-20.1C496.9,1840.7,485.3,1837.4,474.9,1831.4z"/>
	<path opacity="0.2" d="M559.6,1907.3c-16,7.4-32.9,9.9-50,9.2c0.1,0.2,0.3,0.3,0.4,0.5c1.7,2.2,0.5,5.8-1.7,7.1
		c-19.1,10.9-50.6,2.2-69.6-5.3c-12.9-5.1-24.4-12-35.1-20.8c-8.4-6.9-16.4-14.3-25.7-19.6c-2.4-1-4.7-2.1-7.1-3.2
		c-12.6,2.9-24.7,6.5-37.9,6.7c-8.7,0.1-17.4-0.3-26-1.6c-10.1-1.5-20.6-4.5-28.6-10.5c6.8,9,25.7,12.9,34.7,15.5
		c8.7,2.6,20.8,8.7,30,7.5c8.1-1,12.7-10.6,20.8-10.6c17.6,0,30.7,22.9,42.9,32.1c25.2,19,102.2,32,133,23.6
		C555.5,1933.7,560.9,1921.5,559.6,1907.3z"/>
	<g id="legs">
		<path fill="#5799D9" d="M32.6,876.5c1.8,3.1-18.6,40.9-22.7,61.4s-11.3,52.2-7.2,75.7c4.1,23.5,9.2,78.8,9.2,84.9
			c0,6.1,5.2,122.8,5.2,122.8l2.9,123.8c0,0,5.1,77.8,0,116.6c-5.1,38.9-13.2,102.3-13.2,105.4s-10.6,82.9-5.3,110.5
			c5.3,27.6,25.8,133,25.8,138.1s5.5,71.6,5.5,71.6s53.9,16.4,76.4,7.2s56.3-31.7,63.4-49.1c7.2-17.4,10.2-24.6,10.2-24.6
			s-32.7-202.6-32.7-206.7c0-4.1-4.1-117.7-4.1-117.7s6.1-11.3,7.2-15.3c1-4.1,6.1-137.1,6.1-140.2c0-3.1,23.5-143.3,23.5-146.3
			s14.3-124.8,14.3-124.8s11.3,3.1,35.8,36.8s89.6,118.7,89.6,118.7l80.2,93.1l18.4,15.3c0,0-6.1,2-5.1,11.3
			c1,9.2,5.1,17.4,5.1,17.4l6.1,3.1c0,0-3.1-9.2-8.2,5.1c-5.1,14.3-3.1,19.4-20.5,40.9c-17.4,21.5-32.7,37.9-39.9,61.4
			s-29.7,116.6-29.7,116.6s-22.5,64.5-34.3,90s-8.7,32.7-8.7,32.7s63.4,52.2,90,55.3c26.6,3.1,75.7,9.2,75.7,9.2l30.7-145.3
			c0,0,53.2-122.8,54.2-126.9c1-4.1,43-96.2,55.3-110.5s17.4-20.5,15.3-28.7c-2-8.2-14.3-37.9-14.3-37.9l-68.6-150.4l-51.2-97.2
			l-78.8-107.4l-49.1-76.7l-23-35.8c0,0-146.9,12.3-151,13.3C167.5,874.5,32.6,876.5,32.6,876.5z"/>
		<path fill="#4F89C4" d="M145.7,874.4c4.3,15.9,9.2,42.8-8.7,49.7c-0.7,1.1-1.8,1.9-3.4,2.2c-16.4,2.9-32.8,3.6-49.4,3.2
			c-5.9-0.1-11.9-0.3-17.8-0.6c-0.7,0-1.4-0.1-2.2-0.2c-2.3,0.1-4.6,0.2-6.9,0.3c-1.7,0.9-3.8,0.9-5.5,0.2c-3.4-0.2-6.7-4-5.4-7.4
			c3.6-9.7,7.4-19.2,11.8-28.6c2.1-5.7,4.3-11.4,6.4-17.2c-18.5,0.3-31.9,0.5-31.9,0.5c1.8,3.1-18.6,40.9-22.7,61.4
			s-11.3,52.2-7.2,75.7c4.1,23.5,9.2,78.8,9.2,84.9c0,6.1,5.2,122.8,5.2,122.8l2.9,123.8c0,0,5.1,77.8,0,116.6
			c-5.1,38.9-13.2,102.3-13.2,105.4s-10.6,82.9-5.3,110.5c5.3,27.6,25.8,133,25.8,138.1s5.5,71.6,5.5,71.6s21.6,6.6,43.2,9
			c-0.3-0.6-0.6-1.2-0.7-1.6c-2.3-6.7-4.2-13.6-6.1-20.5c-4.1-15.1-7.7-30.3-10.9-45.7c-3.1-15.3-5.7-30.7-7.9-46.2
			c-0.6-4.5-1.2-9-1.8-13.5c-0.3-2.3-1.4-5.4-1.2-7.8c0.1-1.1-0.3-1.8-0.5-2.2c-0.6-0.4-0.3-0.4,0,0c0.3,0.2,0.8,0.5,1.8,0.9
			c-4.1-1.7-3.9-5.9-1.6-8.6c-3.1-14.1-6.7-28.2-9-42.4c-3.4-20.5-2.9-40.9-1.4-61.6c2.6-37.7,2.6-75.4,5-113.1
			c2.5-38.2,6.3-76.4,8.1-114.6c1.8-38-0.6-75.5-1.5-113.5c-0.7-33.5-0.3-66.9-0.1-100.4c0-0.1,0-0.1-0.1-0.2
			c-1.8-7.1-0.4-13.9-0.3-21.1c0.1-8.8-1.7-17.6-3.1-26.3c-2.8-17.2-4.4-34.4-5.9-51.8c-2.9-33-3.2-65.8-3.1-98.9
			c0.1-16.9-0.4-33.5,1.1-50.3c0.7-8.1,0.9-18.8,9.1-23.1c4.4-2.3,10-1.7,14.8-1.8c7.6-0.2,15.3-0.4,22.9-0.6
			c14.7-0.3,29.8,1.2,44.4,0.1c30.6-2.3,26.9-34.7,22.3-57.5C148.8,874.3,147.3,874.4,145.7,874.4z M445.9,1352.8
			c4.4-12.8,5.6-18.8,17.7-20.1c-12.6-3.5-8.9-5.7-19.7-15.8c-12.8-11.9-21.7-28.4-31.2-42.9c-19.2-29.3-38.9-57.9-64-82.6
			c-21.9-21.4-47-41.2-62.8-68c-8.2-13.9-14.2-29-23.1-42.4c-4.7-7.1-13.1-17.1-11.4-26.3c1.5-8,10.4-13.4,16.7-17.2
			c6.1-3.8,13.1-6.8,19.3-10.8c-28.5,3.9-55.5,16.8-80.3,30.6c-1.9,1.1-4.3-0.2-4.4-2.4c-0.1-7.8-0.8-15.6,0-23.4
			c-0.1-0.4,0-0.9,0.1-1.3c0.2-1.3,0.4-2.7,0.6-4c0.3-1.6,2-2.3,3.5-2.1c0.3,0,0.6,0,0.9,0.1c6-4.6,14.6-6.3,21-9.7
			c15.4-8.2,15.6-28.6,15.7-44.1c0-15.5-1.9-30.8-2.5-46.2c-0.7-19,0.3-38.3-4.8-56.8c-1.6,0.1-3.1,0.3-4.7,0.4
			c5.3,31.3,4.2,63.8,5.7,95.5c0.9,19.5-0.4,46.7-22,54.4c-2.2,0.8-4,0.3-5.3-0.9c-0.3,0.1-0.5,0.1-0.8,0.2
			c-2.9,0.5-6.9-0.7-7.4-4.1c-2.5-15.6,1.4-30.9,3.4-46.4c1-7.7,2-15.6,2.7-23.5c-0.1-10.6-0.4-21.3-0.2-31.9
			c-1-12.8-3.1-25.5-7.2-38c-0.3-0.9-0.4-1.7-0.3-2.5c-3.3,0.3-6.4,0.6-9.2,0.8c13.3,30.3,10.8,67.5,9.1,99.5
			c-1.1,22-2.6,44-4.4,65.9c-0.7,8.5-2,16.9-3.2,25.3c1,3.5,2.2,6.9,3.5,10.3c0.2-1.6,0.3-2.4,0.3-2.4s11.3,3.1,35.8,36.8
			s89.6,118.7,89.6,118.7l80.2,93.1l18.4,15.3c0,0-6.1,2-5.1,11.3c1,9.2,5.1,17.4,5.1,17.4l1.8,0.9c-1.1,1-2.4,3.2-3.9,7.3
			c-5.1,14.3-3.1,19.4-20.5,40.9c-17.4,21.5-32.7,37.9-39.9,61.4s-29.7,116.6-29.7,116.6s-22.5,64.5-34.3,90
			c-11.8,25.6-8.7,32.7-8.7,32.7s7.9,6.5,19.3,15.1c3-8.2,6.5-16.3,9.9-24.4c6.9-16.5,12.9-33.4,18.7-50.4
			c9.8-29.2,17.6-59,26.1-88.6c8.2-28.7,17.5-57.2,31.1-83.8c13.4-26.1,31.3-49.6,43.5-76.4c0.7-1.6,1.4-3.3,2.1-4.9
			c3.5-8,6.7-18,13-24.3c4.8-4.8,1.4-4.6,7.6-5.1C446.2,1365.8,441.4,1366,445.9,1352.8z M289.9,887.9c3.9,8.9,9.2,17.2,16.5,23.6
			c10,8.7,44.3,20.5,47.2-1.9c0-0.2,0.1-0.5,0.2-0.7l-2.6-4c-6.6,14.2-22.6,11-35.5,2.7c-13.6-8.8-23.2-21.2-30.6-35
			c0,0,0,0.1,0,0.1C286,877.9,287.7,882.9,289.9,887.9z"/>
		<path opacity="0.2" d="M157.7,1078.6c7.6,10.2,5.7,10.3,4.1,44c-1.9,39.8-11.2,81.7-15.8,121.1c-4.9,41.3-9.8,82.7-12.7,124.2
			c-2.8,38.9,1.2,78.4-4.9,117c-3.1,19.7-10.8,37.4-19.1,55c0.1,1.3,0,2.7-0.5,4c-18.8,53.1-11.6,106.9-6.2,161.6
			c2,20.2,4,40.3,6.7,60.4c0.6,4.1,1.2,8.2,1.8,12.3c3.5,7.4,6,15.1,7,23.1c1.9,3.5,2,8,0.3,11.5c-0.3,3.5-0.8,6.9-1.8,10.4
			c-4.3,15.8-15,28.9-27.5,39.1c-14.5,11.8-31.5,20.8-49.1,27.1c15.5,4.1,51.7,12.3,69.1,5.1c22.5-9.2,56.3-31.7,63.4-49.1
			c7.2-17.4,10.2-24.6,10.2-24.6s-32.7-202.6-32.7-206.7c0-4.1-4.1-117.7-4.1-117.7s6.1-11.3,7.2-15.3c1-4.1,6.1-137.1,6.1-140.2
			c0-3.1,23.5-143.3,23.5-146.3s14.3-124.8,14.3-124.8s11.3,3.1,35.8,36.8c1.6,2.2,3.3,4.6,5.2,7.1c-9.9-20.5-18.6-38.8-6.3-54.2
			c8.6-10.7,26.2-10.6,33.2-22.5c2.8-4.7,13.8-7.4,17-11.8c-76.7,35.3-105.9,23.9-147.1,46.4
			C140.7,1075.5,153.5,1072.9,157.7,1078.6z M607.4,1365.6c-2-8.2-14.3-37.9-14.3-37.9l-68.6-150.4l-51.2-97.2l-78.8-107.4
			l-49.1-76.7l-23-35.8c0,0-146.9,12.3-151,13.3c-4.1,1-138.9,3.1-138.9,3.1c0.7,1.3-2.2,8.4-6.3,17.7
			c41.8,25.9,94.3,22.2,141.5,18.9c24.4-1.7,47.1,8.6,71.1,9.6c26,1.1,52.7-1.2,78.6-4c5.1-0.6,9.4,3.9,11,8.2
			c12.5,33.5,35.1,62.1,55.5,91c21.9,31.1,39,64.8,57,98.3c19.8,36.9,39.7,73.7,58.8,111c8.1,15.8,16.2,31.8,24,47.7
			c7.4,15,14.4,30.8,13.9,47.9c-0.1,4.5-3.2,10.2-8.2,11c-8.6,1.3-17.1,1-25.8,1.1c-1.2,0-2.4,0-3.6,0c5.5,2.3,37.6,30.8,29.3,44.9
			c-8.1,13.6-47.7-7.1-48.8-6.3c-0.3,0.2,26.8,24.4,26.6,24.6c-2.7,17.1-21-4.3-23.9-3.4c-9,2.6,1.7,26.2,0.3,35.4
			c-5.4,34.9-34.1,64.4-52.8,92.9c-21.5,32.9-30.2,68.7-40.3,106.1c-8.6,32.1-21.7,62.6-45.4,86.6c-8.1,8.2-17.1,15.3-26.9,21.2
			c19.8,14,43.9,29.2,57.9,30.8c26.6,3.1,75.7,9.2,75.7,9.2l30.7-145.3c0,0,53.2-122.8,54.2-126.9c1-4.1,43-96.2,55.3-110.5
			S609.5,1373.8,607.4,1365.6z"/>
		<path fill="#5C3000" d="M322.5,860.1c0,0-146.9,12.3-151,13.3c-4.1,1-138.9,3.1-138.9,3.1c0.2,0.3,0.1,0.8,0,1.5
			c0.7,0.2,1.4,0.4,2.2,0.6c25.7,4.7,51,10.8,76.8,15c26.1,4.2,52.5,6.6,78.9,8.2c9.6-0.5,19.2-0.9,28.7-0.6
			c17.3,0.5,34.5,2.2,51.7,2.5c24.4-0.8,48.2-5.2,71.4-12.5L322.5,860.1z"/>
		<path opacity="0.2" fill="#FFFFFF" d="M290.2,1039.4c-5.9,5.2-14.8,13.9-18.4,22.7c11.6,16.5,21.4,34.2,33.1,50.6
			c15,21,31.6,40.7,48.6,60c9.2,10.4,18.5,20.7,27.7,31.1c5.6,1.8,11.2,3.7,16.8,5.6c15.9,5.5,31.8,10.6,48,15.5
			c-8.3-27.2-18-53.9-29.4-80c-11.6-26.7-24.7-53.3-40.6-77.6c-15.4-23.4-32.2-45.7-42.1-72.1c-0.1-0.1-0.1-0.3-0.1-0.4
			c-5.5-2.5-11.7-2.6-22.8-4.8c-2.3-4.2,12.8-19.1,13.4-23.4c0.5-3.6-0.7-9.3-3.1-14.1c-2.7,0.2-5.3,0.5-8,0.8
			c-10.9,1.3-21.7,2.4-32.6,1.4c-6.6-0.6-13.2-1.6-19.8-2.8c0.8,18.4,0,36.8-11.8,52c-2,2.5-4.4,3.6-6.8,3.7
			c-5.9,4.3-13,8.7-16.4,11.8c-2.3,2.1-4.9,4.2-7.5,6.3c-0.2,3.7-0.3,7.5-0.4,11.2c15.1-5.9,29.6-13.4,45.8-16.9
			c10.9-2.3,44.9-13.3,55.1-5.8C322.7,1017.1,292.3,1037.5,290.2,1039.4z"/>
		<path opacity="0.2" fill="#FFFFFF" d="M183.1,1022.1c-19.1-12.9-26.6-21.5-47.3-31.5c-3.5-1.7-34.1-17-30.4-16.1
			c18.9,4.3,16.9,3,34.8,10.4c14.9,6.2,30,11.4,44.1,19.1c1.1-8.7,3-17.4,4.9-26.5c-23.7-7.2-47-15.8-71.1-21.8
			c-23.1-4.3-46.5-6.6-70.3-7.1c-5.1,0.9-10.1,2-15.2,3.6c4,8.8,1.3,21.1,1.2,30.5c-0.1,11.8-0.3,23.6,0.3,35.3
			c0.4,7.6-1.7,23.8,2,29.9c5.4,8.8,18.7,4.6,25.7,11.8c-4.4,4-17.9,4.6-20.1,10.6c-4,10.9,33.6,5.7,27.4,7.8
			c-10.4,3.6-21.9,4.1-24.3,9.2c-1,2.2,3.8,24.8,3.9,28.2c1.4,30.7,9.2,60.4,11.3,91c2.4,34.8,6.2,70.2,6.4,105
			c0.1,17.2,4.9,17.5,22.1,20.9c12.3,2.5,18,7.3,22.2-5.2c4.3-13.1,4.2-27.5,7.9-40.8c4.4-15.6,8.3-31.1,11.3-47.2
			c6.3-33.9,10.4-68.8,10.4-103.3c0-31.1-11.5-53-35.3-73c17.5-5.3,34.4-14.1,52.5-16.6c6.3-0.9,12.2,0.4,18.2-0.2
			c11.6-1.1,9.1-2.6,7.8-13.8C183.3,1028.6,183.1,1025.3,183.1,1022.1z"/>
	</g>
	<g id="belt">
		<path fill="#999999" d="M250,865.2c21.5-3.4,5.1,42-5.3,47.2c-8.6,4.4-46,6.4-52.7-1.1c-8-8.9,1.3-36.1,10.4-40.6
			c15.3-7.5,37.6,3.1,53.6-2.2C254.3,867,252.3,865.9,250,865.2C252,864.9,256.1,868.2,250,865.2z"/>
		<path fill="#CCCCCC" d="M244.5,882c-11-0.4-21.5,4.1-31.7,7.5c-7,2.3-15.1,4.3-23.2,4.9c-0.8,4.5-1,8.8,0,12.3
			c0.4,0.2,0.7,0.5,1,0.8c2.3,2.2,5.4,3.6,8.8,4.6c6,0.1,12.3-1.2,18.3-1.5c7.4-0.4,14.6-0.4,21.9-1.2c1.2-0.9,2.4-1.9,3.4-3.1
			c5.4-6.1,8.7-14.6,9.5-23.4C249.9,882.4,247.2,882.1,244.5,882z"/>
	</g>
	<g id="shirt">
		<path fill="#993100" d="M244.7,328.9c0,0-20-8.4-23-8.2c-3.1,0.2-24.6-8.9-48.1-11s-50.1,24.1-50.1,24.1s-22.5,29-30.7,51.5
			s-11.3,41.3-19.4,52.4s4.3,24.7,4.3,24.7l99.9,39.6c0,0-42.9,64.5-44.9,70.6c-2,6.1-39.9,143.3-39.9,143.3s-10.7,44-22.2,65.5
			s-50.4,94.1-50.4,94.1s-1,6.1,5.1,9.2c6.1,3.1,55.3,11.3,79.8,11.3s70.4-11.3,72.6-10.2c2.1,1,54.6-20.5,80.5-16.4
			s76.3,11.3,77.7,13.3c1.4,2,3.7-6.1,0-20.5c-3.7-14.3-9.9-18.4-9.9-18.4l-12.3-7.2l40-57.3c0,0,32.4-50.1,45.9-84.9
			s39.7-121.8,39.7-121.8l3.8-25.6l47,22.1c0,0,15.4,15.1,22.2,10.6c6.8-4.5,13.3-14.3,14.3-17.4c1-3.1,46.7-105.3,42.8-114.5
			c-3.9-9.3-9-10.1-9-10.1s-29.7-10.1-47.1-21.5c-17.4-11.4-39.4-21.6-43.2-25.7c-3.8-4.1-8.5-6.1-25.6-11.3
			c-17.1-5.1-64.5-8.1-64.5-8.1l-60.1-11.6L244.7,328.9z"/>
		<path opacity="0.2" fill="#FFFFFF" d="M95.4,469.4c7.5-2.6,16-3.4,24.2-3.8c5.1-0.3,16.4,0.5,19.9-3.4c3.4-3.8-3.9-16.7-7-21.4
			c-7.5-11.6-13-22.4-11.2-36.6c1.9-15.4,8.2-30.3,15-44.2c8.2-16.7,18.5-37,33.3-50.5c-22.5,0.8-46.2,24.2-46.2,24.2
			s-22.5,29-30.7,51.5s-11.3,41.3-19.4,52.4c-8.2,11.1,4.3,24.7,4.3,24.7L95.4,469.4z M177,850.4c-4.6-1.1-10-0.2-14.6,0
			c-9,0.4-19.7,0.5-26.4-6.6c-7.4-7.8-7.2-19.7-3.8-31.4c0.6-6.7,2-13.4,3.4-18.9c5.6-21.6,21.6-50.9,12.8-73.6
			c-17.7,4.9-34.7,11.9-49.9,22.5c-6.3,4.4-12.3,9.4-17.8,14.7c-3.1,8.9-6.5,17.5-10.1,24.1c-9.8,18.2-39.2,73.1-47.9,89.5
			c14.3,3.4,28.8,5,43.8,4.6c20.8-0.7,40.8-5.3,61.3-8.6c16.4-2.7,34.1-1.4,49.7-8.2c1.7-0.7,3.6-2,5-3.3
			C182.7,853.2,181.3,851.5,177,850.4z M515.9,461.1c-8.1-4.7-16.3-9.2-24.7-13.5c-11.7-6-24.1-10.9-35.7-17.2
			c-2.1-1.1-4.2-2.3-6.3-3.5c0.2,27.6,1.4,55.9,9.8,82c14.2,8.2,29.1,15.2,44.4,21.3c-0.2-1.8-0.3-3.3-0.4-4
			c-0.3-3.3-0.3-6.4-0.2-9.4c-0.1-1-0.3-2-0.4-3c-1-9,0-17.7,2.2-26.4C507.1,478,511,469.3,515.9,461.1z"/>
		<path opacity="0.2" d="M569.4,447.8c-3.9-9.3-9-10.1-9-10.1s-29.7-10.1-47.1-21.5c-17.4-11.4-39.4-21.6-43.2-25.7
			c-3.8-4.1-8.5-6.1-25.6-11.3c-17.1-5.1-64.5-8.1-64.5-8.1l-60.1-11.6l-75.1-30.6c0,0-20-8.4-23-8.2c-1.3,0.1-5.7-1.4-12-3.3
			c-0.2,0.4-0.5,0.8-0.8,1.2c8.4,23.9,4,50.5-3.8,74.8c-11.2,34.8-25.9,70.2-46.7,100.4c-0.1,0.2-0.3,0.4-0.5,0.5l19.7,7.8
			c0,0-42.9,64.5-44.9,70.6c-1.6,4.7-24.3,86.8-34.7,124.5c16.7,15.6,43.5-5.7,59.3-12.7c20.8-9.3,42.8-13.9,65.6-13.7
			c14.9,0.1,30.1,1.6,44.9,3.7c14.2,2,29.8,5.3,41.4,14.3c24.5,19.1,10.5,61.6,2.2,85.5c-5,14.5-10.7,31.1-20.6,43.2
			c-10.7,13.2-27.7,16.2-43.7,17.3c-29.3,2-58.6,5.4-86.1,14.8c2.5-0.1,5-0.2,7.5-0.3c17.2-0.6,33.4-3.4,50.3-6.2
			c29.2-4.8,62.5-9,89.6,5.7c4.5,2.4,3.3,8.4-1.3,11c-7,4.1-8.2-5.9-73.3-2.7c-0.8,0.5-41.7,8.7-60,11c-31.7,9.1-43.1,12.4-45.9,13
			c-12.9,3.1-20.1,7.7-33.3,7.2C87,888,81,885.8,73.1,886c-12.5,0.7-25,1.2-37.6,1.5c17.2,3.6,50.6,8.5,69.5,8.5
			c24.6,0,70.4-11.3,72.6-10.2c2.1,1,54.6-20.5,80.5-16.4s76.3,11.3,77.7,13.3c1.4,2,3.7-6.1,0-20.5s-9.9-18.4-9.9-18.4l-12.3-7.2
			l40-57.3c0,0,32.4-50.1,45.9-84.9c13.5-34.8,39.7-121.8,39.7-121.8l3.8-25.6l47,22.1c0,0,15.4,15.1,22.2,10.6
			c4.3-2.9,9-73.7,11.8-77.8c-16.3-6.1-14.4,53.8-29.9,46c-11.4-5.7-33.1-6.8-46-28.3c-8.7-14.5,0-44.3-11.3-65.4
			c-2,28.9-1.4,97.8-22.4,140.3c-11.9,24-19.4,28.7-33.3,37c-17.9,10.7-40.5,2-59.3-0.7c-27.6-3.9-56.4-1.9-83.2,5.8
			c-4.2,1.2-8.8-2.8-7.5-7.3c4.7-15,13-28.3,18.4-43c5.6-15.1,9.2-31.1,11.8-47c5.3-32.6,5.5-65.8,7.5-98.8c0.1-1.3,0.5-2.4,1.1-3.2
			c0-5.2,0.8-10.4,2.1-15.7c0.6-2.5,3.1-4.6,5.8-4.5c19.6,0.3,39.2,4.6,58.9,2.8c17.2-1.6,33.1-8.6,50-11.8
			c26.7-5,54.2,6.8,77.7,18.1c22,10.6,44.3,20.8,66.1,31.7c9.9,4.9,21.6,11,31,19C567.1,462.3,570.6,450.7,569.4,447.8z"/>
	</g>
	<g id="right_arm">
		<path fill="#F7CAA3" d="M552.9,218.6c-1.3-2.5-52.5,0-52.5,0s-27.2,67-24.2,85c3,18,4.4,28.2,14,33.7c9.5,5.5,9.5,5.5,9.5,5.5
			l53.2,61.4l32.7,50.5l-32.7-13.6c0,0-35.5,33.4-38.2,68.2s-5.5,61.4-5.5,61.4s49.8,23.9,52.5,23.9s70.3,17.7,79.1,17.1
			c8.9-0.7,45.7-2.7,56.6,0c10.9,2.7,44.3,3.4,44.3,3.4s17.1,1.4,22.5-7.5s8.9-17.1,2.7-30s-19.1-34.8-19.8-38.9
			c-0.7-4.1-19.1-78.3-31.4-93.4C703.6,430,640.2,387,640.2,387l-87.3-70.9l-13-12.5C539.9,303.6,557.6,228.1,552.9,218.6z"/>
		<path opacity="0.3" fill="#FFFFFF" d="M694.9,556.4c-33.9-28.2-60.5-62.7-85.8-99.4c-16.3-23.7-32.8-47.5-52.9-68.2
			c-9.2-9.5-19.3-18.4-30.2-25.9c-5.3-3.6-11.2-6.4-17-9.2l43.8,50.5l22.3,34.3c0.3,0.4,0.6,0.8,0.9,1.2c0,0,0,0,0,0
			c0,0.1,0.1,0.1,0.1,0.2c13.7,17.3,23.6,36.8,35.7,55.2c2.8,4.2,5.6,8.3,8.5,12.5c9.1,10,18.3,19.9,26.3,30.7
			c4.5,1.9,8.8,3.6,12.5,5.2C670.8,548.4,682.8,552.8,694.9,556.4z"/>
		<path fill="#E8AC72" d="M767.1,577.4c-6.1-13-19.1-34.8-19.8-38.9c-0.7-4.1-19.1-78.3-31.4-93.4C703.6,430,640.2,387,640.2,387
			l-87.3-70.9l-13-12.5c0,0,17.7-75.5,13-85c-1.3-2.5-52.5,0-52.5,0s-27.2,67-24.2,85c2,11.8,3.3,20.3,6.6,26.3
			c1.5-0.5,3.2-0.4,5,0.8c6.9,4.6,21.7-8.8,29.6-9c6.1-0.1,12.1,3.9,16.8,7.2c14.8,10.3,26.8,24,41.3,34.6
			c20.5,15.1,39.7,32.2,56.2,51.7c8.7,7.3,17.1,15,24.9,23.4c21.8,23.3,38.6,51.1,46.6,82.1c5,19.4,9.3,38.1,18.7,56.1
			c4.6,8.8,13.7,20.6,8.3,31c-1.4,2.6-3.6,4.8-6.2,6.5c9.6,0.5,17.9,0.7,17.9,0.7s17.1,1.4,22.5-7.5
			C769.8,598.5,773.2,590.3,767.1,577.4z M585.6,454.6l-32.7-13.6c0,0-35.5,33.4-38.2,68.2c-2.7,34.8-5.5,61.4-5.5,61.4
			s4.9,2.4,11.8,5.6c-0.8-10,2.4-18.6,3-28.6c0.8-13.2,7.1-26.4,9.7-39.4c1.6-7.9,12.3-34.8,17.6-32.2
			c31.8,15.6,54.3,29.1,82.5,50.5c-3.6-5.8-7.3-11.5-10.8-17.3C610.1,487.6,585.6,454.6,585.6,454.6z"/>
	</g>
	<g id="headphone">
		<path fill="#3B3B3B" d="M478,45.1c1.9,1.3,27.1,62.9,28.5,96s0,43.6,0,43.6s4.1-7.1,10.9,16.4s13.6,24.8,5.5,51.8
			s-14.3,43.5-24.6,50.6c-10.2,7.1-14.7,6.4-25,5.7c-10.3-0.6-19.7-5.7-19.7-5.7l13.3-80.9l7.2-40l13.3-4c0,0,7.2-49.1-20.4-127.9
			C462,36.5,478,45.1,478,45.1z"/>
		<path opacity="0.3" fill="#FFFFFF" d="M513.1,243.8c-1.7-0.8-3.3-2.1-4.4-3.9c1.1,17.9-4.7,34.1-13.8,49.6
			c-2,4.2-4.4,8.1-7.1,11.8c1.4,0,2.7,0,4.1,0c7.2-8.6,12.2-18.5,16.1-29.7c2.7-7.7,4.9-15.8,5.2-23.9
			C513.1,246.3,513.1,245.1,513.1,243.8z"/>
		<path opacity="0.2" d="M474.1,182.7l-7.2,40l-13.3,80.9c0,0,9.4,5.1,19.7,5.7c0.5,0,1,0.1,1.5,0.1c6.6-7.4,12.9-14.8,17.2-24.2
			c5.6-12,10.3-27.1,9.7-40.5c-0.3-5.5-3.5-14.6,1.8-18.9c5.3-4.3,14.6-0.5,20.6-0.8c0.8,0,1.3,0.4,1.6,1c-1.5-6.7-5-12.9-8.4-24.7
			c-6.8-23.5-10.9-16.4-10.9-16.4s1.4-10.5,0-43.6c-1.4-33.1-26.6-94.7-28.5-96c0,0-16-8.6-11,5.7c27.5,78.7,20.4,127.9,20.4,127.9
			L474.1,182.7z"/>
	</g>
	<g id="neck">
		<path fill="#F7CAA3" d="M391.8,348.5l-29.5,56.3c0,0,3.5,46-21,52.2c-24.4,6.1-41.8,8.2-60.2,0c-18.4-8.2-45.4-29.7-45.4-29.7
			l36.2-89l15.1-69.9l58,23.5L391.8,348.5z"/>
		<path opacity="0.5" fill="#E8AC72" d="M391.8,348.5l-29.5,56.3c0,0,3.5,46-21,52.2c-24.4,6.1-41.8,8.2-60.2,0
			c-18.4-8.2-45.4-29.7-45.4-29.7l36.2-89l15.1-69.9l58,23.5L391.8,348.5z"/>
		<path fill="#E8AC72" d="M391.8,348.5l-46.9-56.6l-44.4-18c0,1.7-0.1,3.3-0.1,5c0,0.7,0,1.4-0.1,2.2c0,0.3,0,0.6-0.1,0.9
			c0.2-0.2,0.2,0,0.1,0.8c0,0.1,0,0.3-0.1,0.4c0,0,0,0.1,0,0.1c0,2.5-0.4,5-0.6,7.5c-0.5,6.3-0.8,12.7-1.2,19
			c-0.6,10.1-1.4,20.2-1.7,30.3c-0.9,24.6-0.3,49.6,3.8,74c2.7,16.3,7.6,32.1,10.7,48.3c9.1-0.5,18.8-2.4,30.1-5.3
			c24.4-6.1,21-52.2,21-52.2L391.8,348.5z"/>
		<path fill="#C9935E" d="M298.9,302.7c7.1,15.2,10.8,30.4,24.6,42c10.8,9.1,20.1,17.2,22.8,31.7c4.4,23.2-2.8,47.3-13.8,68.7
			c2.9-2.7,5.7-5.5,8.3-8.5c3-3.4,5.8-7,8.5-10.6c4.9-8.8,9.8-17.6,15.4-26c0.1-0.1,0.2-0.2,0.3-0.3l26.9-51.2l-46.9-56.6l-44.4-18
			c0,1.7-0.1,3.3-0.1,5c0,0.7,0,1.4-0.1,2.2c0,0.3,0,0.6-0.1,0.9c0.2-0.2,0.2,0,0.1,0.8c0,0.1,0,0.3-0.1,0.4c0,0,0,0.1,0,0.1
			c0,2.5-0.4,5-0.6,7.5C299.4,294.7,299.1,298.7,298.9,302.7z"/>
	</g>
	<g>
		<path fill="#F7CAA3" d="M553.7,226.3l1.5-11.6c0.7-4.9-1.4-9.8-5.5-13.1c-4-3.2-8.2-6.8-8.2-7.7c0-1.7-3.1-11.6-7.7-15.7
			c-4.6-4.1-12.2-5.6-19.4-4.2c-7.2,1.4-18.2,5.8-18.2,5.8s-15.2,5.9-6,14.2c8.2,7.4,14.5,3.1,14.5,3.1s-10.7,3.1-3.6,10.9
			c7.2,7.8,16.9,5.3,16.9,5.3h1.4l5.5,10.9L553.7,226.3z"/>
		<path fill="#E8AC72" d="M541.5,194.1c-0.1-0.5-0.3-0.9-0.4-1.4c0-0.2,0-0.3,0-0.5c-0.6-2.5-2.2-6.9-4.4-10.4
			c-10.2-1.3-19.9-1-29.7,2.8c-6.2,2.4-11.1,6.5-16.8,9.4c3.3,2.9,6.2,4.8,11.9,4.2c14.9-8.5,21.7-10.8,35-6.4c1,0.3,4,2.3,4.4,2.6
			c0.2,0,0.2,0,0.3,0C541.6,194.4,541.5,194.3,541.5,194.1z"/>
		<path fill="#C9935E" d="M541.1,192.7c0-0.2,0-0.3,0-0.5c0-0.1,0-0.1,0-0.2c-3.7-1.5-6.8-4.2-10.9-5.2c-0.9-0.2-1.8-0.4-2.7-0.5
			c-8.3,1.7-15.1,4.3-23,7.8c-3.3,1.5-6.8,2.9-10.4,2.8c2.1,1.1,4.5,1.6,7.9,1.3c14.9-8.5,21.7-10.8,35-6.4c1,0.3,4,2.3,4.4,2.6
			c0.2,0,0.2,0,0.3,0c-0.1-0.1-0.1-0.2-0.2-0.4C541.4,193.7,541.2,193.2,541.1,192.7z"/>
		<path fill="#E8AC72" d="M550.9,202.8c-0.4,0-0.7,0-1.1-0.1c-12-2.1-20.6-3.9-32.1,0.7c-6,2.4-11.1,4.1-17.7,3
			c-0.1,0-0.2-0.1-0.3-0.1c0.4,0.6,0.8,1.2,1.4,1.8c7.2,7.8,16.9,5.3,16.9,5.3h1.4l5.5,10.9l28.9,2.1l1.5-11.6
			C555.8,210.4,554.2,206,550.9,202.8z"/>
		<path fill="#C9935E" d="M532.6,215.7c-4.3-0.3-8.4-1.2-12.6-2c-0.1,0.2-0.2,0.3-0.3,0.5l5.1,10l1.3,15.1
			c2.5-2.6,9.1-19.7,11.9-22.1c0.5-0.6,1.1-1.2,1.7-1.7C537.3,215.8,535,215.9,532.6,215.7z"/>
	</g>
	<g id="head">
		<g>
			<path fill="#F7CAA3" d="M492.1,119c0,5.5-2.7,51.8,0,65.5s2.7,43.7,0,66.9s-18.6,46.4-23.9,76.4c-5.3,30-11.9,31.4-11.9,31.4
				s-19.9,9.6-30.5,10.9c-10.6,1.4-27.8-10.9-27.8-10.9l-63.6-36.8c0,0-18.6-21.8-18.6-30c0-8.2-13.3-105.1-13.3-105.1L329,79.4
				c0,0,49-31.4,75.6-25.9c26.5,5.5,63.6,8.2,68.9,15S492.1,119,492.1,119z"/>
			<path fill="#E3A870" d="M492.1,184.4c-2.7-13.6,0-60,0-65.5c0,0-13.3-43.7-18.6-50.5c-1.2-1.5-3.9-2.8-7.8-4
				c1.2,3.4,1.7,7.1,2.3,10.7c1.6,8.8,3.9,17.4,5.3,26.2c2.8,17.3,3.5,35.2,2.9,52.7c-0.1,2.3-1.9,3.6-4,3.3
				c-18.6-2.8-33.9,13.8-37.1,31.6c-0.5,6.4-0.8,12.7-0.3,18.9c1.3,6.5,6.3,8,12.1,8c8.4-4.2,17.5-7.6,26.5-2.8
				c3.1,1.6,5.5,3.9,7.3,6.6c1.3,1.2,2.5,2.6,3.6,4.2c5.2,7.9,7.3,17.9,6.7,27.9c0.2,1.1,0.3,2.1,0.4,3.2c0.2-1.2,0.4-2.5,0.5-3.7
				C494.7,228.1,494.7,198.1,492.1,184.4z"/>
			<path opacity="0.3" fill="#FFFFFF" d="M344.9,286.3c0-0.1,0-0.1,0-0.2c-0.2-2.5-2.2-1-3.5-0.1c-2.9,2-5.5,4.4-7.7,7.2
				c1.5-3.1,3.2-6.2,4.8-9.2c2.5-4.6,5.6-9.1,5.9-14.5c0.1-2.4-0.1-4.8-0.2-7.2c-0.1-2.3-0.2-4.6-0.3-7c-0.5-10-1.8-20,1.1-29.8
				c3.7-12.3,12.6-19.9,23.6-24.7c-0.3-3.4-1.1-7.3-3.3-9.6c-1.4-1.5-3.4-2.3-5.4-3.1c-0.8,0.5-1.8,0.6-2.9,0
				c-11-5.6-8.2-22.8-9.4-33c-1.2-9.9-5.5-19.3-7-29.2c-0.9-6.2-1.5-12.5-1.9-18.8c-0.1-2.1,0.4-5.6,0.2-8.2
				c-1.2-1.1-1.7-3.1-0.1-4.6c0,0,0.1-0.1,0.1-0.1c-0.7-6.4-1.7-12.7-3.6-18.9c-4,2.3-6.5,3.9-6.5,3.9l-26.5,107.8
				c0,0,13.3,96.9,13.3,105.1c0,8.2,18.6,30,18.6,30l15,8.7c-2.9-8.9-4.6-18.2-5.3-27.5c-0.2-3.4-0.5-6.8-0.1-10.2
				C344.3,291,345.1,288.6,344.9,286.3z"/>
			<path opacity="0.6" fill="#E8AC72" d="M331.3,78c0.2,0.5,0.4,1.1,0.5,1.7c0.5,2.3,0.9,4.6,1.3,6.9c5-0.5,11.1,3.7,10.1,10.6
				c0,0.2,0,0.5-0.1,0.7c0.3,0.7,0.5,1.4,0.7,2.3c0.7,4.7,1.4,9.4,2,14.2c1.9,5.5,4.4,10.7,6.4,15.2c2,4.6,4.2,9.1,6.3,13.6
				c6.7-20.4,11.6-41.6,10-63c-0.2-2.8,0.7-4.9,2.2-6.3c-0.1-3.3-0.2-6.7-0.2-10.1c0-2.5,0.8-4.4,2.1-5.8
				C354.6,64.3,337.3,74.4,331.3,78z"/>
			<path opacity="0.6" fill="#E8AC72" d="M492.1,184.4c-2.7-13.6,0-60,0-65.5c0,0-13.3-43.7-18.6-50.5c-5.3-6.8-42.4-9.6-68.9-15
				c-6.9-1.4-15.4-0.3-24.1,2.1c3.5,0.6,6.6,3.3,6.7,8.1c0.1,22.1,2.7,44,5,65.9c1-4.1,2.1-8.1,3.5-12.1
				c5.3-15.2,13.9-29.5,14.5-46.1c0.2-5.7,4.7-8.5,9-8.4c1.1-0.6,2.4-1,4-1c9.7,0,10.8,13.8,3.1,16.7c-0.3,2.2-0.8,4.4-1.3,6.5
				c1.6,2.3,2.1,5.4,0.2,8.7c-0.2,0.3-0.3,0.6-0.5,0.9c0.2,0.4,0.4,0.9,0.5,1.4c4.8,15.8,6.7,31.8,6.4,48
				c14.4-13.7,21.6-39.5,15.2-56.9c-3.8-10.4,12.3-15.1,16.1-4.8c8.4,22.9-0.4,52.7-17.6,71.2c-0.2,0.7-0.6,1.4-1,2.2
				c-2.7,4.1-4.8,8.5-6.5,12.9c-0.8,12.5-2.9,25-5.9,37.2c-0.2,3.8-0.3,7.6-0.3,11.5c2.3,10,5.4,19.7,8.2,29.5
				c2.6,9,7,20.1,5.8,29.6c-1.1,9.2-6.1,11.3-12,10.4c-2.5,1.3-5.4,1.7-8,0.4c-2.4-1.2-5.3-3.3-8.4-4.9c-1.8,1.5-4.2,2.2-6.8,1.7
				c-0.2,0-0.4-0.1-0.7-0.1c0.1,1.2,0.3,2.3,0.5,3.4c0.4,0.2,0.9,0.4,1.3,0.6c7.1,2.3,13.9,5.6,21.3,6.8c5.1,0.8,9.3,3,9.2,9.2
				c-0.1,4.7-2.7,6.9-6,7.7c4.3,3,7.8,7.8,4.5,13.1c-1.6,2.6-4.5,3.9-7.4,4.4c2.2,6.1,2.2,13,1.5,19.4c-1.1,9-5.1,17.1-11.8,21.4
				c1,0.1,2,0.1,2.9,0c10.6-1.4,30.5-10.9,30.5-10.9s6.6-1.4,11.9-31.4c5.3-30,21.2-53.2,23.9-76.4
				C494.7,228.1,494.7,198.1,492.1,184.4z"/>
		</g>
		<path fill="#B58B0F" d="M410.1,154c-5.2-1.2-10.2-3.2-15.4-4.4c-9.6-2.1-20.1-4.4-30-3.2c-3.6,0.4-7.8,0.9-11.3,1.8
			c-3.1,0.9-5.8,3-8.4,4.9c-1.8,1.3-3.5,2.8-5.3,4.1c-0.7,0.5-1.4,1.3-2.3,1.4c3.5,0,5.6-0.6,9.6-0.7c6.6-0.1,13.3-1,19.9-0.7
			c6.9,0.3,13.6,1.8,20.3,3.3c4.9,1,9.8,1.8,14.4,3.7c1.8,0.7,3.8,2.1,5.8,2.5c1.9,0.3,3.2-1.6,4.6-2.8c2.1-1.7,4.4-3.3,6.3-5.2
			c1.1-1.1,1.9-2.5,2.9-3.6C417.8,156,413.1,154.7,410.1,154z M488.1,153.8c-2.5,0.3-5.4-0.8-7.8-1.4c-3.5-0.9-7.1-1.3-10.6-2
			c-5.3-1.2-11.4-2.2-16.7,0c-3.2,1.3-5.4,5.2-6.9,8.2c-1,2.1-1.9,4.2-2.3,6.5c-0.2,1.3-0.3,2.4-0.8,3.6c2,1,5-1,6.7-1.7
			c3.9-1.6,7.8-3.5,11.7-4.9c6-2.1,12.6-2.1,18.9-2.1c2.2,0,5.6,0.6,7.3-1.3C488.9,157.1,488.8,154.9,488.1,153.8z"/>
		<path opacity="0.2" d="M488.1,153.8c-2.5,0.3-5.4-0.8-7.8-1.4c-1.7-0.4-3.4-0.7-5.1-1c-1.7,2-4.1,3.1-6.9,4.1
			c-7.6,2.9-15.1,5.8-21.9,10.2c-0.9,0.6-1.9,0.7-2.7,0.5c-0.1,0.8-0.3,1.6-0.6,2.4c2,1,5-1,6.7-1.7c3.9-1.6,7.8-3.5,11.7-4.9
			c6-2.1,12.6-2.1,18.9-2.1c2.2,0,5.6,0.6,7.3-1.3C488.9,157.1,488.8,154.9,488.1,153.8z M415.5,155.1c-6,7-19.4,3.6-27.1,2.2
			c-8-1.5-16.2-2.3-24.3-1.9c-2.1,0.6-4.1,1.3-6.2,1.9c2.9-0.2,5.9-0.3,8.8-0.1c6.9,0.3,13.6,1.8,20.3,3.3c4.9,1,9.8,1.8,14.4,3.7
			c1.8,0.7,3.8,2.1,5.8,2.5c1.9,0.3,3.2-1.6,4.6-2.8c2.1-1.7,4.4-3.3,6.3-5.2c1.1-1.1,1.9-2.5,2.9-3.6
			C419.4,155.5,417.4,155.4,415.5,155.1z"/>
		<g>
			<path opacity="0.6" fill="#E8AC72" d="M353.7,175.7c-2,0.3-1,8.1-0.8,9.4c0.5,2.3,1.5,4.3,2.4,6.5c0.6,1.5,1,3,2,4.2
				c4.2,5.5,10.1,7.9,16,9.7c7.2,2.2,15.1,2.5,22.4,1.3c4.6-0.7,10.6-0.9,13.1-6.4c2.8-6.2-1.7-14.7-3.2-20.7c-1-3.9-1.9-6.6-5-8.8
				c-1.3-0.9-3.4-1.8-4.8-1.9c-0.6-0.1-1.1,0.2-1.7,0.4c-2.7,0.9-5.4,1.8-8.2,2.4c-6.8,1.3-13.6,2.1-20.4,2.6
				c-2.1,0.2-4.2,0.1-6.3,0.5c-1.5,0.3-1.7,0.7-2.9,1.7c-0.9,0.7-1.8,1.4-2.7,2.1c-0.8,0.6-0.9,1.6-1.7,2.2
				C353.1,181.6,354.2,182.3,353.7,175.7z"/>
			<path opacity="0.4" fill="#853E00" d="M361.7,169.7c5.5-3,11-4.6,17.4-4.3c6.1,0.2,14.8,2.1,19.3,6.6c5,4.9,3.1,12.3,2.2,19
				c-0.6,4.8-0.4,10.4-4.9,12.2c-5.4,2.1-15.4,0.2-20.8-0.6c-22.3-3.3-23.6-25.5-24.1-24.9C350.7,177.3,359.8,170.7,361.7,169.7z"/>
			<path d="M362.9,171.6c5.7-2.6,11.4-3.7,17.7-2.9c6.1,0.7,14.6,3.2,18.8,8.1c4.6,5.3,2.1,12.5,0.7,19.1c-1,4.7-1.2,10.3-5.9,11.8
				c-5.5,1.7-15.4-1.1-20.6-2.3c-21.9-5.1-21.5-27.3-22.1-26.7C351.4,178.4,361,172.5,362.9,171.6z"/>
			<path fill="#FFFFFF" d="M362.9,173.7c5.7-2.6,11.4-3.7,17.7-2.9c6.1,0.7,14.6,3.2,18.8,8.1c4.6,5.3,2.1,12.5,0.7,19.1
				c-1,4.7-0.4,8.8-5.1,10.3c-5.5,1.7-16.1-1.6-21.4-2.8c-21.9-5.1-21.5-25.3-22.1-24.6C351.4,180.4,361,174.6,362.9,173.7z"/>
			<circle fill="#359FD4" cx="378.4" cy="183.6" r="11.8"/>
			<circle cx="378.4" cy="183.6" r="7.3"/>
			<circle fill="#FFFFFF" cx="372.7" cy="182.7" r="4"/>
		</g>
		<g>
			<path opacity="0.4" fill="#853E00" d="M477.7,178.7c-4.5-3.1-9.1-4.9-14.6-5.1c-5.3-0.2-12.8,0.8-17,4.4
				c-4.6,4-3.5,10.7-3.2,16.7c0.2,4.3-0.4,9.3,3.4,11.2c4.4,2.3,13.2,1.3,17.8,0.9c19.3-1.3,22-21,22.4-20.4
				C486.5,186.2,479.2,179.7,477.7,178.7z"/>
			<path d="M476.4,180.3c-4.7-2.7-9.5-4.1-14.9-3.9c-5.3,0.2-12.7,1.8-16.6,5.8c-4.3,4.3-2.7,11-2,16.9c0.5,4.2,2,5.7,5.9,7.3
				c4.6,1.9,11,0,15.6-0.7c19.2-2.9,20.8-18.9,21.3-18.3C485.8,187.1,478,181.2,476.4,180.3z"/>
			<path fill="#FFFFFF" d="M476.3,182.1c-4.7-2.7-9.5-4.1-14.9-3.9c-5.3,0.2-12.7,1.8-16.6,5.8c-4.3,4.3-2.7,11-2,16.9
				c0.5,4.2-1,4.7,3.4,7.8c4.1,2.9,16.7,0.7,21.3,0c19.2-2.9,17.7-20,18.1-19.5C485.7,188.9,477.9,183,476.3,182.1z"/>
			<ellipse fill="#359FD4" cx="459.6" cy="190.4" rx="10.1" ry="10.5"/>
			<ellipse cx="459.6" cy="190.4" rx="6.3" ry="6.5"/>
			<ellipse fill="#FFFFFF" cx="454.7" cy="189.5" rx="3.5" ry="3.6"/>
		</g>
		<path fill="#C9935E" d="M446.9,276.4c0,0.1,0,0.2,0.1,0.2c0.1-0.1,0.1-0.2,0.2-0.3C447,276.4,447,276.4,446.9,276.4z M447.7,275.5
			c-0.2,0.3-0.4,0.6-0.5,0.9l0,0C448.1,276.7,447.6,276.4,447.7,275.5z M398.6,278c0.1,0.3,0.3,0.6,0.5,0.8c0.5,0.5,0.9,0.7,1.4,1.2
			c0.6,0.8,1,1.4,1.8,2c2.4,1.6,6,1.7,8.7,2.2c1.5,0.2,3,0.2,4.5,0.4c1.5,0.3,2.7,1.1,4,1.8c6.4,3.7,12.7,5.5,19.8,2.7
			c2.8-1.1,5.3-3.6,7-6c1.6-2.4,1.4-4.1,0.7-6.5c-0.5,0.9-1.1,1.8-1.6,2.8c-1.8,3-4.2,3.2-7.1,4.6c-1.5,0.7-3.4,0.7-5,0.9
			c-1.5,0.2-3,0.2-4.5-0.1c-2.9-0.6-5.9-1.2-8.8-1.9c-2.4-0.6-4.8-0.1-7.3-0.5c-2.7-0.4-5.5-1.4-8-2.4c-0.9-0.4-1.8-0.9-2.6-1.6
			c-0.9-0.8-1.3-2.2-2.4-2.8c-1.8-1-1.2,1.5-1.3,2.6C398.5,278.2,398.5,278.1,398.6,278z M399,276.1C399,276.1,399,276.1,399,276.1
			L399,276.1C399,276.1,399,276.1,399,276.1z M426.2,329.1c-1.4-0.1-3.1,0.4-4.4,0.4c-3.1,0.1-6.1-0.2-9.2-0.4
			c-2.4-0.2-4.9-0.7-7.3-0.6c-0.8,0-1.7,0.1-2.4,0.6c2.5,2.3,6.9,3.8,9.9,4.9c1.7,0.6,5.4,2.2,7.5,1.7c1.4-0.4,2.6-2.2,3.5-3.2
			c0.6-0.7,2.4-2.3,2.3-3.3c-0.3,0-0.8,0-1.1,0c0.2,0,0.4,0,0.7-0.1C425.9,329.1,426.1,329.1,426.2,329.1z M446.6,308.5
			c-3.9,1.5-8.1,2-12.2,2.1c-4.5,0.1-9,0.5-13.5,0.3c-4.9-0.2-9.4-1.6-14.1-3.1c-8.6-2.7-17-5.7-25.6-8.2c-4.3-1.3-8.7-2.5-12.9-4.2
			c-0.7-0.3-4.5-1.3-4.9-2.1c-0.4-0.7,1.1-1.7,2.3-2c0.1,0.4,0.1,0.8,0.2,0.9c0-0.3,0.1-0.6,0.3-0.9c0.1,0,0.3,0,0.3,0
			c0,0-0.1-0.2-0.2-0.3c0.3-0.4,0.6-0.7,0.8-1.1c-1.7-0.4-4.5,0.3-6.1,0.8c-2,0.6-3.9,1.8-5.4,3.2c1.9,0.6,4.3,0.2,6.3,0.7
			c2.2,0.5,4.6,1.2,6.7,2c3.7,1.5,7.5,3,11.2,4.5c4.1,1.7,8.2,3.9,12.5,5.1c4.1,1.1,7.9,2.5,11.9,3.8c4.3,1.4,8.7,2.6,13.2,3.5
			c4.7,0.9,9.7,0.7,14.5,0.5c4.2-0.2,7.5-1.2,11.3-3c2.1-1,4.1-1.4,6.4-1.9c1.9-0.5,4.7-0.8,6.3-1.9
			C452.7,304.5,449.7,307.4,446.6,308.5z"/>
		<path opacity="0.3" fill="#FFFFFF" d="M428.2,271.3c2.2,0.6,3.2,0.6,2.3-2.2c-0.8-2.6-3-5-4.4-7.5c-2-3.7-3.3-7.6-4.5-11.6
			c-1.2-4.3-2.3-8.2-2.5-12.7c-0.3-6-0.5-12-0.8-18c-0.3-6.2-0.7-12.3-1-18.5c-0.1-1.8-0.3-3.7-0.1-5.5c-0.3,2.8-1.4,5.8-1.9,8.5
			c-1.1,5.8-1.1,11.8-2.1,17.6c-1.3,7.6-5,14.6-5.4,22.5c-0.1,2.1,0,4.1,0.7,6c0.4,1.1,0.8,1.7,0.7,2.8c-0.1,1.6-1,1.4-1.7,2.5
			c0-0.3-0.1-0.8-0.4-1.9c-3-0.8-5.9,4.1-7.3,6.2c-1,1.5-4.5,5.7-3.4,7.5c1.4-0.2,3.9-2.9,4.6-3.5c1.4-1.2,3.7-3.8,5.9-3.4
			c2.3,0.4,4.6,2.9,6.5,4.4C417.8,268,423,269.8,428.2,271.3z M436.2,315.4c-0.3-1.4-3.3-1.6-4.2-0.6c0.2,0.3,0.5,0.7,1.7,1
			c-2.8-0.1-5.6,0.3-8.4,0.4c-3.3,0.1-6.7,0.2-10,0.1c-1.3-0.3-2.5-0.1-3.7,0.4c0.8,1.9,2.8,3.3,4.4,4.3c4.5,2.9,9.1,1.7,13.5-0.6
			c1.9-0.9,3.6-2,5.3-3.3C435.9,316.8,436.4,316.2,436.2,315.4z"/>
		<g>
			<path fill="#DBAE25" d="M335,118.3c-1.8,4.1-13,47-15.1,61.4s-10.2,48.1-10.2,48.1l-29.8-8.2c0,0-29.6-45-32.7-69.6
				c-3.1-24.6-2-60.4,13.3-72.6C275.9,65.1,279.9,64,279.9,64s-22.2,3.1-25.4,6.1c-3.2,3.1,15.1-16.3,25.4-19.4
				c10.3-3.1,33.5-13.3,33.5-13.3H324h6.1c0,0,17.4-24.6,33.8-29.7s17.4,0,17.4,0S364.9,19,363.9,24.1c-1,5.1,25.6-7.2,45-3.1
				s38.9,12.3,54.2,13.3c15.3,1,53.2-4.1,57.3-8.2S501,46.7,488.7,50.8c-12.3,4-12.3,4-12.3,4s27.6,0,39.9,8.2
				c12.3,8.2,27.6,24.6,27.6,24.6s-30.7-13.3-38.9-14.3c-8.2-1-8.2-1-8.2-1s25.6,14.3,31.7,30.7s7.2,29.7,7.2,29.7
				s-15.3-25.6-29.7-33.8s-8.5-4.1-8.5-4.1s9.6,5.1,14.7,26.6c5.1,21.5,4.1,39,4.1,39s-19.4-48.2-29.7-55.4
				c-10.2-7.2-16.4-14.3-16.4-14.3s4.1,46-3.1,51.2c0,0-15.3-49.1-26.6-60.4s1,13.3,1,13.3s0,21.5-3.1,34.8s-3.1,13.3-3.1,13.3
				s-4.1-26.6-9.2-37.9c-5.1-11.3-22.5-31.7-22.5-31.7s-22.5,43-20.5,54.2s2,11.3,2,11.3s-22.5-45-21.5-59.3
				c1-14.3-9.2,26.6-9.2,26.6l-9.6,30.7L335,118.3z"/>
			<path opacity="0.17" d="M350.9,96.2c-2.7,7.1-3.9,14.6-8.2,21c-0.7,1.1-2,1.3-3,0.5c-4.5-4-7.2-9.3-9.6-14.7
				c-1.2,12.5-4.1,24.6-7.8,36.6c-3.4,10.7-6.5,21.8-13.3,30.9c-1,1.3-2.8,0.4-3.3-0.8c-4.4-11.3-0.7-26.4,0.7-38
				c2-16.5,3.2-33.4,7.2-49.6c2.9-11.8,7.2-23.2,12.8-34c0.4-0.8,0.9-2.1,1.6-3.6c-0.7-0.8-1.1-2-0.4-3.3c0.6-1.2,1.3-2.5,2-3.7
				h-12.5c1.4,0.8,1.1,3.5-0.9,3.6c-0.2,0-0.4,0.1-0.6,0.1c-15.6,16.5-17.7,47.5-19.7,68.7c-1.7,18.3-0.4,37.2-3,55.2
				c-2.3,15.9-13.1,25.3-24.6,35.3c6.3,11.1,11.6,19.1,11.6,19.1l29.8,8.2c0,0,8.2-33.8,10.2-48.1c2-14.3,13.3-57.3,15.1-61.4
				l10.1,18.4l9.6-30.7c0,0,3.4-13.7,6.1-22.4c0.2-3.9,0.3-7.8,0.2-11.7c-1,1.4-1.9,2.8-2.9,4.3C356.3,83,353.4,89.5,350.9,96.2z
				 M401,59.2c-14.5,20.8-26.5,46.2-19.5,71.5c2.3,4.9,3.9,8,3.9,8s0,0-2-11.3c-1.8-10.1,16.2-45.9,19.8-53
				C402.9,69.3,402.4,64.2,401,59.2z M415.4,57.9c4.8,11.3,9.4,22.8,12.9,34.5c1.6,3.5,3.1,7.2,4.2,11c3.6,12.4,4.3,25.2,3.4,37.9
				c0.4-1.6,1.1-4.9,2.7-11.8c3.1-13.3,3.1-34.8,3.1-34.8s-0.2-0.3-0.4-0.9C440.6,93.8,430.8,63.3,415.4,57.9z M497.6,94.7
				c0,0-0.3-0.2-0.6-0.5c-3.6-2-7.2-3.8-10.9-5.4c-2.4-0.8-4.7-1.4-6.6-2c-0.1,0-0.2-0.1-0.3-0.1c8.5,7.9,16.4,16.4,22,26.8
				c4.3,8.1,7.5,16.9,10,25.8c1.8,6.2,2.8,12.7,4.4,18.9c0.5,1.3,0.9,2.1,0.9,2.1s1-17.5-4.1-39C507.2,99.9,497.6,94.7,497.6,94.7z
				 M516.4,63c-12.3-8.2-39.9-8.2-39.9-8.2s0,0,12.3-4c12.3-4,35.8-28.7,31.7-24.6c-1.5,1.5-7.4,3.1-15,4.5
				c-6.4,6.1-14.4,10.2-22,14.5c-7,4-14.2,7.7-21.6,10.9c24.1,2.8,47,11.6,68.1,23.6c4.6,1.9,9,4.3,13,7.4c0.7,0.3,1,0.4,1,0.4
				S528.7,71.2,516.4,63z M503.4,76.3c-5.4-1.9-10.9-3.7-16.5-5.1c-3.5-0.4-7-0.5-10.7-0.2c28,9.2,50,33.6,59.5,61.6
				c0,0.1,0.1,0.1,0.1,0.1s-1-13.3-7.2-29.7C524.5,91.8,511.4,81.7,503.4,76.3z M455.3,71.9c7.7,22.1,10.3,45.4,11.6,68.8
				c0.2,0.7,0.4,1.1,0.4,1.1c5.3-3.8,4.4-29.8,3.6-43.2C467.2,88.9,462.2,79.8,455.3,71.9z"/>
			<path opacity="0.2" fill="#FFFFFF" d="M303.9,49.4c0-0.4,0.2-0.6,0.6-0.8c-2.3,0.6-4.7,1.1-7,1.6c-4.8,1.1-9.9,1.5-14.7,2.7
				c-4.7,1.2-8.7,3.4-13,5.5c0,0.8,13.6,1.8,15.1,3c-6.6,5.4-13.3,11.2-18.5,18c-4.4,5.7-8.7,11-11.5,17.7
				c-1.6,3.8-3.6,9.4-2.8,13.6c2.2-2.8,4.4-6.4,7.6-8.2c-0.1,3.6-1.2,7.1-2,10.6c-1.8,7.4-3.5,15.6-3.5,23.2
				c0,5.3,0.5,10.3,1.9,15.3c1.1,4,2.9,7.7,3.8,11.8c-1-10.2,0.4-20.5,2.4-30.5c1.8,4.5,2.9,10.2,4.2,14.6
				c1.8,6.1,3.4,12.2,5.9,18.1c1.9-0.6-1.2-15.7-1-18.5c1.7,2.7,2.9,5.6,4.7,8.2c0.2-20.4,1.4-40.9,8.2-60.3c2-5.6,4-11.8,6.9-17.1
				c0.5-1,2.3-2.6,2-4c0,1.8,0.7,4.1,1.2,5.9c0.6-4.6,1.2-8.9,2.9-13.2c1.4-3.7,2.7-7.9,4.5-11.4c0.6-1.2,1.5-2.4,2.1-3.7
				c0.3-0.7,0.4-1.5,0.9-2.1c-0.2,0.1-0.4,0.1-0.5,0.2C304,49.7,304,49.6,303.9,49.4z M456.6,42c-3.8-1.6-7.6-3-11.4-4.3
				c-6-2.3-11.9-4.8-18-6.6c-8.4-2.6-17.3-3.5-26.1-3.5c-4.5,0-8.8-0.6-13.3-0.7c-5.6-0.1-11.3-0.1-16.8,0.6
				c-5.1,0.6-9.7,2.2-14.6,3.4c-2.3,0.6-6.7,1.8-9,0.2c0.6-2.6,4.3-5.1,6.1-7.1c3.2-3.5,7.1-6.7,9.6-10.7c-1.6-0.2-2.9,1.2-4.2,2
				c-3.6,2.4-7.2,5-10.4,7.9c-2.2,2-4.3,4.2-6.5,6.4c-2.1,2.1-4.6,4.2-6.1,6.7c-1.4,2.2-3,5.7-3.3,8.3c0,0.3,0,0.8,0,1.4
				c-0.1,0.2-0.2,0.5-0.3,0.8c-2.3,3.3-4.1,6.8-5.4,10.6c-2.9,6.9-5.6,14.2-6.8,21.6c5.2-4,6.3-11.7,11.1-16.1
				c0.1,1.9-0.3,3.6-0.6,5.4c-0.7,4.8-0.9,9.7-0.6,14.5c0.2,3.7,0.9,7.3,1.5,11c0.1,0.7,0.2,4.6,1.1,4.9c1.7-6.4,2.7-12.9,4.5-19.2
				c1-3.6,1.9-7.6,3.8-10.8c-0.1,1,0.1,2,0.4,2.9c3.3-4.3,5.8-9.4,9-13.9c1.5-2.1,3.1-4.1,4.6-6.2c0.7-1.6,1.7-2.8,3-3.7
				c0.7,2,0.6,3.9,0.7,6c0.2,5,1,10,1.4,15c1.9,0,3.7-6.1,4.5-7.7c0.7-1.6,3.3-8.8,4.9-8.6c0.9,12.5,3.8,24.5,6,36.8
				c4-11.6,6.3-23.9,9.7-35.7c1.1-3.7,1.8-7.6,3.6-11.1c2-0.3,4.8,2,6.4,3.1c3.1,2,5.5,4.7,8,7.4c-0.2-3.1-0.8-6.3-1.6-9.4
				c-0.6-2.5-0.5-3,2.7-3c6.3,0,12.8,3.3,18.5,5.5c2.8,1.1,7.2,3.7,10.3,3.4c-2-1.5-3.8-3.1-5.6-4.8c1.2-0.5,2.4-0.5,3.7-0.2
				c3.7,0.2,7.3,0.4,11,0.8c5.9,0.4,11.9,1.4,17.6-0.4C459.7,43.2,458.8,42.2,456.6,42z"/>
		</g>
	</g>
	<g id="headphone_1_">
		<path fill="#3B3B3B" d="M298.4,165.4c0,0,13.3-5.6,19.7,0c6.4,5.6,20.9,20.8,21.4,42.9c0.4,22.1,4.4,39.5-4.4,60
			c-8.9,20.5-15.5,27.1-26,27.6c-10.5,0.5-37.7-6.7-37.7-6.7s-34.4-36.8-24.9-79s26.6-54.7,26.6-54.7s-1.7-34.7,3.3-60.3
			s13.3-53.6,26.6-65.9s38.2-24,56-28.1s62,4.4,62,4.4s32.7,9.9,40.2,17.6c7.5,7.7,8.7,8.6,9,10.7c-4.2,0.6-11.6,0.6-11.6,0.6
			S455.8,27.7,437,20c-18.8-7.7-50.6-6.8-50.6-6.8s-28.7-0.7-37.8,2s-19.6,4.3-29.1,22.2c-9.4,17.9-15,23.3-18.3,52.1
			C297.9,118.3,298.4,165.4,298.4,165.4z"/>
		<path opacity="0.3" fill="#FFFFFF" d="M320.5,210.1c-2.8,1-5.5,2.1-8.2,3.3c1.1,7,0.7,14.3,0,21.4c4.4-0.3,8.2,1.7,10.4,5
			c0.4-3.1,0.3-6.3,0.4-9.4C323.5,223.3,323.1,216.7,320.5,210.1z M305.9,274.5c-1.1,4.5-3,8.4-5,12.4c7.3-2.9,12.3-10.5,14.1-18.5
			c-1,0.1-2.1,0.3-3.1,0.4C307.4,269.5,306.9,270.1,305.9,274.5z"/>
		<path opacity="0.2" d="M461.1,23.1c-2.2-2.2-6.5-4.6-11.5-7c-27.4-9.2-57.3-11.9-86-9.6c-15,1.2-30.2,6.7-42.4,15.7
			c-9.3,11.9-16.3,25.3-22.9,38.9c-2,9.1-3,18.4-3.9,27.5c-2.4,25.7-2,51.6-4.6,77.3c0,0.1,0,0.2-0.1,0.3c0.1,0.9,0.1,1.8-0.2,2.9
			c-2.2,9.2-8.9,13.1-15.9,16.7c-1.2,3.7-5.2,5.3-8.6,4.6c-1.7,1-3.2,2.1-4.7,3.4c-3.4,9.9-5.2,20.2-5.6,30.8
			c0.4,2.2,0.8,4.3,1.1,6.2c1.6,9.7,2.9,19.2,0.9,29c-0.3,1.6-1.3,2.9-2.5,3.8c7.6,15.5,16.9,25.5,16.9,25.5s12.8,3.4,24.2,5.3
			c-0.5-3.2-0.7-6.5-0.9-9.7c-0.1-2.5-1-6.8,0.1-9.1c2.3-4.4,11.4-6.9,16.6-8.6c0.2-0.2,0.5-0.4,0.7-0.7c1-1,3.1-0.3,3.2,1
			c0.7,0.2,1.2,0.7,1.3,1.6c0.1,0.8,0.1,1.6,0.1,2.4c0,0.2,0,0.3,0,0.5c-0.1,9.7-5.2,17.8-12.6,23.8c1.8,0.2,3.5,0.2,4.9,0.2
			c10.5-0.5,17.2-7.2,26-27.6c8.9-20.5,4.8-37.9,4.4-60c-0.4-22.1-15-37.2-21.4-42.9c-6.4-5.6-19.7,0-19.7,0s-0.5-47.1,2.8-75.8
			c3.3-28.8,8.9-34.2,18.3-52.1c9.4-17.9,19.9-19.4,29.1-22.2c9.1-2.7,37.8-2,37.8-2s31.8-0.9,50.6,6.8
			c18.8,7.7,21.5,14.5,21.5,14.5s7.4,0,11.6-0.6C469.7,31.8,468.6,30.8,461.1,23.1z M321.4,206.8c1-0.5,2.4-0.2,2.7,1
			c0.4,1.5,0.6,3.1,0.9,4.6c1.1,3.6,1.5,7.3,1.3,11.1c0.9,7.6,0,15.3-3,22.5c-0.7,1.6-2.8,0.9-3.3-0.4c-0.3-0.6-0.5-1.2-0.8-1.9
			c-3.7,2-8.4,1.6-12.5,1.4c-10-0.6-18.3,2.2-28.1,3.8c-1.4,0.2-2.6-0.7-2.3-2.2C281.4,222.1,301,216.5,321.4,206.8z"/>
	</g>
	<g id="left_arm">
		<path fill="#F7CAA3" d="M317.2,179.9c4.3,2,5.2,9,3,13.8c-1.5,3.4-7.9,5.9-11,7.6c-7.5,4.2-15.6,9.8-23.7,12.7
			c-6.8,2.4-12.8,1.7-15,10.1c-2,7.7-2.7,16.1-3.8,24c0,0,22.6-7.7,34.2-9.1c5.2-0.6,15.4-2.3,18.9,1.4c5.4,5.8,2.2,11.5-3.9,14.3
			c-9.4,4.3-22.1,5.7-29,13.5c-3.1,3.6-3.8,3.5-3.6,7.4c0.3,6,3.5,13,4.9,19c3.8,16.9,5.9,33.3,2.3,50.4c-1.1,5.4-2.5,12-6.1,16.4
			c-2.7,3.2-7.8,4-10.1,6.9c-1.3,1.6-1.6,5.5-2.2,7.6c-1.6,5.6-3.2,11.1-4.8,16.7c-3.5,12.3-7,24.5-10.6,36.8
			c-11.4,39.7-15.5,81.3-28.2,120.6c-5.3,16.4-11.7,32.5-18.6,48.3c-4.9,11.1-9.7,22.7-18.6,31.2C173,647,153,662.8,133.6,678.8
			c-4.5,3.7-9,7.2-13.6,10.7c-8.5,6.3-10.5,14.4-15.4,23.1c-4.7,8.4-10.4,9.8-19.5,10.9c-7.8,1-11.7-4-16.7-9.1
			c-3.4-3.4-10.2-8.3-12.3-12.8c-1.3-2.7-1.2-7.2-1.6-10.1c-1.4-8.7-3-17.3-5-25.8c-4-17.1-10.8-33.4-14.7-50.5
			c-3.5-15.3-2.4-27.3,1.4-42.3c3.5-13.7,7.4-27.2,11.3-40.8c2.4-8.3,8.4-14.9,12.2-22.6c5.9-11.9,10.4-25.2,14.9-37.7
			c1.9-5.2,3.7-10.4,4.9-15.8c1-4.7,1-5,7-5.8c16.9-2,32,4.2,46.5,12c3.3,1.8,12.2,9.3,16,9.1c1.6-0.1,2.2-1.4,3.6-3.2
			c13.4-17.2,26.9-34.4,40.3-51.6c10.7-13.7,18.5-30.2,27.1-45.2c8.9-15.8,15.8-30.9,16.3-49.3c0.6-23.8,0-47.6-0.2-71.4
			c-0.2-15.1,2.8-33.3-0.6-47.7c-1.3-5.5-4.5-11.2-4.3-16.9c0.1-5,2.4-12.3,4.5-16.8c5.6-12.1,14.3-13.7,26.1-16.4
			c4.9-1.1,26.4-1.9,28.7,0.2c3.2,2.9,4.4,3.1,3.2,9.9c5.5-1.8,9.4-2.5,12.5-0.7c6.7,3.9,3.5,11.3,2.5,17.6
			C311,179.9,315.4,179,317.2,179.9z"/>
		<path opacity="0.3" fill="#FFFFFF" d="M257.4,255.6c-7.4-5.4-9.5-27.2-20.8-26.5c-0.3,7.4-0.9,14.8-0.8,21.6
			c0.3,23.8,0.9,47.6,0.2,71.4c0,1.5-0.1,3-0.3,4.4c7.2,5.2,12.1,12.7,18.1,19.4c4.7-29,6.9-58.4,11.1-87.5
			C262.7,257.1,259.9,257.3,257.4,255.6z M74.5,471.8c-4.5,12.5-9,25.8-14.9,37.7c-3.8,7.8-9.8,14.4-12.2,22.6
			c-3.9,13.5-7.8,27.1-11.3,40.8c-3.8,14.9-4.9,27-1.4,42.3c3.9,17.1,10.7,33.4,14.7,50.5c1.1,4.6,2,9.3,2.9,13.9
			c1.9-15.6,2.1-31.1,0.3-47.6c-1.3-12-2.4-24-2.6-35.9c-1.2-9.6-1.3-19.4,0.1-29c3.1-21.8,12.5-41.6,21.3-61.6
			c4.7-12.9,8.8-25.9,11.6-39.3c-2.1-0.4-4.1-0.8-6.2-1.1C76.1,467.3,75.3,469.5,74.5,471.8z M226.6,358.5
			c-2.1,4.3-4.3,8.6-6.8,12.9c-8.5,15.1-16.4,31.5-27.1,45.2c-13.4,17.2-26.9,34.4-40.3,51.6c-1.1,1.5-1.7,2.6-2.8,3
			c-1.5,2.1-3.2,4.2-4.9,6.2c-4.8,6.7-10.3,12.9-16.4,19c-1.5,1.5-3.1,1.9-4.5,1.6c-2.8,2.6-5.7,5.1-8.8,7.4
			c-1.8,1.3-3.6,1.2-5.1,0.4c-6.7,7.9-12,17-16.4,26.5c-1.4,4.4-3,8.7-4.5,13c-0.5,2.1-0.9,4.2-1.4,6.3c-0.6,3.4-1.1,6.9-1.6,10.3
			c-0.1,18-1.9,36.5,1.8,54c0.2,1,0.6,2.3,1,3.8c19.5-46,44.3-89.7,71.8-131.4c15.3-23.1,30.6-46.2,45.1-69.8
			c7.3-11.8,14.1-24.2,22.4-35.3c3.9-5.3,10.6-10.6,6.4-17.7C232.7,362.6,229.8,360.3,226.6,358.5z"/>
		<path fill="#E8AC72" d="M234.2,191.1c7.1-27.2,40.8-17.6,58.3-27.8c-1.5,0.3,2.7-0.9,0.9-0.3c1.1-5.9,0.4-6.8-1.9-8.8
			c-0.4,0.5-0.9,1-1.5,1.4c-11.4,7.2-24.4,8.3-37.2,11.1c-12.6,2.7-19.3,8.2-21.7,18.2c0,0.4-0.1,0.8-0.1,1.2
			c-0.1,3.5,1,6.9,2.2,10.3C233.4,194.6,233.8,192.9,234.2,191.1z M87.6,560c2.9-21.6,19.8-39.7,34.6-54.4
			c4.7-4.7,9.5-9.3,14.3-13.9c3.8-6.8,10.2-12.9,12.3-20.3c-4.3-2-13.4-7.8-16-9.1c-4.9-2.6-9.9-5.1-15-7.1
			c-2.9,9.3-4.2,19.1-8.3,28.1c-7.9,17.6-15.6,34.1-19.9,53.1c-2.6,11.5-4.3,23.2-5.3,35c1.1-3,2.2-5.9,3.5-8.8
			C87.6,561.7,87.5,560.9,87.6,560z M244,196c-0.8,4-1,8.2-0.9,12.3c1.4-4.4,1.9-10.9,5.8-14.2c10.9-9.5,28.6-8.5,43.1-8.7
			c6.5-1.8,9.5-1.7,13.9-4.2c6-3.4,9.7,4.3,5.5,9.7c-1.4,1.8-6.5,5.4-8.4,6.1c-12.8,5.2-26.7,5.3-40.3,6.3c-0.6,0-1.1,0-1.6-0.2
			c0.6,1.3,0.8,2.9,0.1,4.6c-4.9,11.9-4.1,25-6.3,37.5c0.2,2,0.4,4,0.6,6c2.1,0.7,4.7,1,7.5,0.9c0.6-0.2,3.1-2.4,3.7-4
			c1.1-7.9,1.8-16.3,3.8-24c2.2-8.5,8.2-7.7,15-10.1c8.2-2.9,16.2-8.5,23.7-12.7c3.1-1.7,9.4-4.2,11-7.6c2.2-4.8,1.2-11.8-3-13.8
			c-1.8-0.9-6.2,0-8.8,0c0.8-4.9,2.8-10.4,0.6-14.5c-0.2,0.9-0.7,1.8-1.6,2.6c-9.5,8.2-22.4,10.3-34.5,12.5
			C261.8,182.5,246.6,182.8,244,196z M322.2,244.4c-0.6,0.8-1.5,1.5-2.8,1.8c-3.3,0.8-11.3,3.7-12.3,4.1
			c-8.1,3.3-24.1,9.6-38.5,11.6c-0.5,1.4-1,2.8-1.3,4.2c4.6,30.1,21.3,73.4-6.2,96c1.9,18.6-5.3,36.3-11.9,53.4
			c-8.6,22.6-15.6,45.7-23.3,68.7c-13.2,39.6-28.8,77.9-51.5,113.1c-10.4,16.1-22.1,31.5-35.7,45.1c-7.3,7.3-14.9,13.7-23.5,19.4
			c-9,6-17.6,11.4-23.8,20.5c-7.3,10.8-17,25.4-32.2,23.2c-0.2,0-0.3-0.1-0.5-0.1c3,3.3,7.1,6.5,9.6,8.9c5.1,5.1,9,10.1,16.7,9.1
			c9-1.1,14.8-2.5,19.5-10.9c4.9-8.8,7-16.9,15.4-23.1c4.6-3.5,9.1-7,13.6-10.7c19.4-16.1,39.4-31.8,57.7-49.3
			c8.9-8.5,13.8-20.1,18.6-31.2c6.9-15.7,13.3-31.9,18.6-48.3c12.7-39.4,16.9-80.9,28.2-120.6c3.5-12.3,7-24.5,10.6-36.8
			c1.6-5.6,3.2-11.1,4.8-16.7c0.6-2,0.9-5.9,2.2-7.6c2.3-2.9,7.4-3.6,10.1-6.9c3.6-4.4,5-11,6.1-16.4c3.5-17.2,1.5-33.5-2.3-50.4
			c-1.3-5.9-4.6-12.9-4.9-19c-0.2-3.9,0.5-3.8,3.6-7.4c6.9-7.9,19.6-9.2,29-13.5C320.7,252.7,323.6,248.7,322.2,244.4z"/>
		<path fill="#C9935E" d="M293.8,160c-2.2,1.7-5.2,2.7-8.3,3.3c-6.9,3.5-14.8,4.5-23,5.4c-3.6,0.4-7.3,0.8-10.9,1.5
			c-3,1.2-6.1,2.2-8.8,4.1c-1.7,1.1-3,2.4-4.3,3.8c-0.1,0.1-0.1,0.2-0.2,0.3c-0.3,1.5-0.5,3.1-0.6,4.6c11.3-17,39.3-10.7,54.8-19.7
			c-0.9,0.2,0.2-0.2,0.9-0.4C293.6,161.8,293.8,160.8,293.8,160z"/>
		<path fill="#C9935E" d="M305.9,181.3c0.3-0.1,0.5-0.2,0.8-0.4c0.6-0.4,1.2-0.8,1.8-1.3c0.2-1.1,0.4-2.1,0.6-3.2
			c-1.5,0.9-3.3,1.5-5.1,1.9c-0.7,0.4-1.5,0.7-2.3,1c-11.2,6.4-26.1,4.5-39.6,5.6c-2.9,1.1-5.9,2.1-8.7,3.4
			c-3.8,1.7-6.8,4.2-9.2,7.2c0,0.2-0.1,0.3-0.1,0.5c-0.8,4-1,8.2-0.9,12.3c1.4-4.4,1.9-10.9,5.8-14.2c10.9-9.5,28.6-8.5,43.1-8.7
			C298.6,183.6,301.6,183.7,305.9,181.3z"/>
	</g>
	<path id="cable" fill="#4D4D4D" d="M455.7,590.8c-1.7-2.9-3.4-5.8-5.1-8.6c-5-8.4-10.2-17-14.8-25.8c-5.3-10.1-8.3-20.1-9.6-32.3
		c-1.2-11-2.4-22.8-1.5-34.8c1.7-23.6,10.1-49.8,25-77.8c1.5-2.9,3.1-5.8,4.7-8.6c4.5-8.2,9.2-16.7,12.9-25.7
		c3.9-9.6,6.7-19.7,9.2-33.8c1.2-6.8,2.3-13.8,3.3-20.5c0.6-3.6,1.1-7.3,1.7-10.9l0.2-0.1c0.1-1.3,0.2-2.6,0.4-3.9
		c-0.1,0-0.3,0-0.4,0c-1.3,0-2.5-0.2-3.5-0.5c-0.1,0.3-0.1,0.6-0.2,0.9c-0.1,0.7-0.3,1.4-0.4,2.1c-0.6,3.9-1.2,7.8-1.8,11.7
		c-1,6.7-2.1,13.6-3.3,20.3c-2.5,13.7-5.2,23.6-9,33c-3.6,8.8-8.2,17.2-12.7,25.3c-1.6,2.9-3.2,5.8-4.7,8.7
		c-15.2,28.5-23.8,55.3-25.5,79.4c-0.9,12.3,0.3,24.3,1.5,35.6c1.4,12.7,4.5,23.1,10.1,33.7c4.7,8.9,9.9,17.6,14.9,26
		c1.7,2.9,3.4,5.7,5.1,8.6c9.8,16.6,16.2,34.1,21.2,49c6.2,18.4,13.7,45.7,6.9,69.4c-1.3,4.4-3,8.8-4.7,13.1
		c-1.1,2.9-2.3,5.8-3.4,8.8c-3.6,10.2-7.5,21.1-12.7,31.7c-1.4,2.8-2.6,5.6-3.9,8.4c-1.2,2.6-2.4,5.2-3.7,7.9
		c0.3-1.3,0.8-2.9,1.4-4.3c0.3-0.7,0.5-1.3,0.7-1.9c1.1-3.1,2-6.3,2.8-9.4c0.4-1.5,0.8-2.9,1.3-4.4l0.4-1.2
		c2.6-8.7,5.3-17.8,6.8-26.7c1-6.1,1-12.3,1-18.4l0-2.5c0-1.3,0-2.6,0.1-3.9c0.1-2.8,0.1-5.6-0.1-8.4c-0.9-9.4-4.8-18.2-8.8-26.4
		c-3.9-8.1-9.4-15.1-14.6-21.7c-2-2.5-4-5.1-6-7.8c-11.3-15.4-24.4-33.4-35.5-51.8c-4.5-7.4-8.7-15.2-12.8-22.7
		c-3.8-6.9-7.6-14-11.7-20.8c-7-11.8-13.7-25.7-19.3-40.1c-1.8-4.6-3.4-9.4-4.9-14c-2.1-6.3-4.3-12.8-7-19.1
		c-2.6-5.9-5.3-11.8-7.9-17.5l-0.9-2c-7.3-16.1-13.5-33.1-19.4-49.6c-1.2-3.4-2.5-6.9-3.7-10.3c-5.3-14.4-8.6-29.9-9.7-44.7
		c-0.5-7.2-0.4-14.6-0.3-21.8c0.1-9.7,0.3-19.8-1.1-29.6c0-0.3-0.1-0.9-0.2-1.6c-0.2-1.7-0.4-3.3-0.6-4.8c-0.5,0.1-1.1,0.1-1.7,0.1
		c-0.9,0-1.7-0.1-2.4-0.2c0.2,1.4,0.5,3.2,0.7,5.3c0.1,0.7,0.1,1.3,0.2,1.7c1.4,9.5,1.2,19.4,1.1,29c-0.1,7.3-0.2,14.8,0.3,22.2
		c1.1,15.2,4.5,31,9.9,45.8c1.2,3.4,2.5,6.9,3.7,10.3c6,16.5,12.1,33.6,19.5,49.9l0.9,2c2.6,5.7,5.3,11.6,7.8,17.5
		c2.7,6.2,4.8,12.6,6.9,18.8c1.6,4.7,3.2,9.5,5,14.2c5.7,14.6,12.4,28.7,19.6,40.7c4,6.8,7.9,13.9,11.6,20.7
		c4.1,7.5,8.4,15.3,12.9,22.8c11.2,18.6,24.3,36.6,35.7,52.1c2,2.7,4.1,5.3,6.1,7.9c5.4,6.8,10.4,13.3,14.1,21
		c3.8,7.9,7.6,16.3,8.4,25c0.2,2.6,0.2,5.3,0.1,8c0,1.4-0.1,2.7-0.1,4.1l0,2.5c0,5.9,0.1,11.9-0.9,17.7c-1.5,8.7-4.1,17.7-6.7,26.3
		l-0.4,1.2c-0.4,1.5-0.9,3-1.3,4.4c-0.4,1.3-0.7,2.5-1.1,3.8c-0.4,2.2-1,4.3-1.5,6.5c-1,4.5-1.4,9.1-2.5,13.6
		c-0.7,2.8-1.7,5.3-3,7.6l0.1,0.1c-0.7,3.7-3.5,7.5-6,10.8c-0.5,0.7-1,1.4-1.5,2c-5,6.9-10.9,13.4-16.5,19.7c-1.5,1.6-3,3.3-4.4,4.9
		c-16.3,18.3-33.6,29.5-51.3,33.1c-9.5,1.9-19.2,3-29,3.7c0.4,1.3,0.7,2.7,0.7,4.1c9.7-0.7,19.5-1.8,29.1-3.7
		c18.6-3.8,36.6-15.3,53.5-34.3c1.5-1.6,2.9-3.3,4.4-4.9c5.7-6.4,11.6-12.9,16.8-20c0.5-0.6,1-1.3,1.5-2c1.3-1.8,2.8-3.7,4-5.7
		c0.8-1.8,1.6-3.6,2.3-5.5c0.8-2,1.5-4.1,2.3-6.1c0-0.2,0-0.3,0-0.5c0-0.1,0-0.1,0-0.1c0.3-0.5,0.6-0.9,0.9-1.4
		c0.4-0.9,0.8-1.8,1.4-2.7c0.2-0.4,0.5-0.7,0.8-0.9c2-3.7,3.8-7.7,5.5-11.4c1.2-2.7,2.5-5.5,3.8-8.2c5.3-10.8,9.3-21.8,12.9-32.2
		c1-2.9,2.2-5.8,3.3-8.6c1.7-4.3,3.5-8.8,4.9-13.5c7.1-24.8-0.5-52.9-6.9-71.8C472.2,625.5,465.7,607.7,455.7,590.8z"/>
</g>
</svg>
