<?xml version="1.0" encoding="UTF-8" standalone="no"?>
<!-- Created with Inkscape (http://www.inkscape.org/) -->

<svg
   xmlns:dc="http://purl.org/dc/elements/1.1/"
   xmlns:cc="http://creativecommons.org/ns#"
   xmlns:rdf="http://www.w3.org/1999/02/22-rdf-syntax-ns#"
   xmlns:svg="http://www.w3.org/2000/svg"
   xmlns="http://www.w3.org/2000/svg"
   xmlns:sodipodi="http://sodipodi.sourceforge.net/DTD/sodipodi-0.dtd"
   xmlns:inkscape="http://www.inkscape.org/namespaces/inkscape"
   width="1052.3622"
   height="744.09448"
   id="svg3226"
   version="1.1"
   inkscape:version="0.91 r13725"
   sodipodi:docname="idea scrive.svg">
  <defs
     id="defs3228" />
  <sodipodi:namedview
     id="base"
     pagecolor="#ffffff"
     bordercolor="#666666"
     borderopacity="1.0"
     inkscape:pageopacity="0.0"
     inkscape:pageshadow="2"
     inkscape:zoom="0.95283599"
     inkscape:cx="526.18109"
     inkscape:cy="372.04724"
     inkscape:document-units="px"
     inkscape:current-layer="layer1"
     showgrid="false"
     inkscape:window-width="1440"
     inkscape:window-height="851"
     inkscape:window-x="0"
     inkscape:window-y="1"
     inkscape:window-maximized="1" />
  <metadata
     id="metadata3231">
    <rdf:RDF>
      <cc:Work
         rdf:about="">
        <dc:format>image/svg+xml</dc:format>
        <dc:type
           rdf:resource="http://purl.org/dc/dcmitype/StillImage" />
        <dc:title />
      </cc:Work>
    </rdf:RDF>
  </metadata>
  <g
     inkscape:label="Layer 1"
     inkscape:groupmode="layer"
     id="layer1"
     transform="translate(0,-308.2677)">
    <g
       id="g4224"
       transform="translate(-1.8913916,1.2711519)">
      <path
         sodipodi:nodetypes="cscscssscsscssccscsscssscsccssscsscsssccsssscsscssscscscsccsscssscssscsscsscscsscssscssccssscssccccccsscscsssscsscsscsscssssscsscsscssscssccscscscssscsscsssccssccsscsssscsscssscsscscscscsscsscscsccc"
         inkscape:connector-curvature="0"
         d="m 325.61817,743.70908 c -30.98044,13.48691 -61.43452,27.72742 -90.86301,42.11976 -9.66817,4.72831 -19.18563,9.49406 -28.77842,14.24108 -44.00157,22.1139 -88.35077,44.95092 -123.88614,67.05391 -4.93535,3.06979 -9.28827,6.04644 -13.93239,9.06966 -5.13057,3.76023 -13.533464,9.30859 -14.298784,11.92112 -0.761685,2.60019 6.042884,0.97961 13.190254,-0.82501 2.7381,-0.69133 -10.40514,2.58764 -7.15759,1.32131 10.54819,-4.11308 20.42857,-6.98597 30.64285,-10.47896 12.91896,-4.71021 25.7759,-9.30031 38.75687,-14.13062 29.85141,-11.1079 65.21914,-24.76733 95.13193,-36.40497 44.26727,-17.22229 88.61937,-34.80243 132.95017,-52.35494 19.16869,-7.51373 38.39466,-15.37309 57.56695,-22.90651 5.63065,-2.21246 11.29598,-4.468 16.85743,-6.50152 12.55253,-4.58981 29.67131,-7.56901 32.05422,-6.77451 1.69012,0.5636 -9.27244,5.1779 -13.90866,7.76689 -61.27904,31.62515 -123.56458,63.14897 -183.9297,94.87005 -13.68756,7.19263 -27.14256,14.39836 -40.71383,21.59754 -31.30516,16.94881 -63.10386,34.23174 -88.92302,50.79253 -8.67681,5.56544 -21.2245,13.99282 -23.67441,18.12735 -0.92775,1.56568 1.20586,1.91403 1.80881,2.87103 4.51395,-0.77293 8.49124,-1.18049 13.54184,-2.3188 0.66437,-0.14973 0.3058,-0.69413 1.12256,-0.98626 13.21355,-4.72617 25.88535,-8.67625 39.09691,-13.39928 56.95311,-20.36029 115.16938,-43.49607 172.98367,-66.25962 55.93119,-22.25255 111.89589,-44.93989 167.84111,-67.82588 29.15346,-11.92604 58.28883,-23.97084 87.44524,-35.83905 9.64383,-2.54801 25.293,-8.6928 28.9315,-7.644 2.36208,0.6809 -13.89344,6.69556 -21.04475,9.91736 -11.74685,5.29218 -23.69768,10.36877 -35.53218,15.57157 -36.32943,15.97153 -68.1401,29.96423 -104.37024,46.34154 -19.36794,8.75499 -38.58017,17.62638 -57.87023,26.43957 -51.48274,23.94293 -102.98169,48.22373 -151.2338,73.14692 -20.16355,10.41488 -43.0031,22.64029 -59.69917,33.06717 -6.14209,3.83581 -10.71612,7.39176 -16.0742,11.08764 -1.65761,2.19249 -5.43807,5.19903 -4.97289,6.5775 1.15004,3.40797 16.29371,0.15719 28.11493,-2.73116 3.67461,-0.89783 8.36791,-2.68895 12.57885,-4.06331 71.0551,-23.19097 37.06058,-11.75369 117.80802,-40.18249 127.07102,-46.14029 255.85992,-95.8956 384.33585,-145.39677 10.00094,-3.85061 20.01887,-7.75088 30.00283,-11.55183 14.85991,-5.65725 39.02901,-14.94071 45.14795,-13.14577 2.20589,0.64708 -12.86473,6.35509 -19.54514,9.41511 -10.9783,5.02871 -22.19174,9.86255 -33.29316,14.78795 -15.17531,6.73286 -30.35795,13.45786 -45.5369,20.18679 -52.5721,23.3658 -104.81487,47.09339 -156.33378,71.216 -26.54821,12.43062 -59.25556,27.91512 -85.08965,40.8598 -10.25679,5.13938 -20.01174,10.3494 -30.01761,15.5241 -6.76866,4.00449 -14.43226,8.13915 -20.30601,12.01346 -14.7313,9.71676 -16.95544,14.84032 2.779,9.84985 1.44672,-0.36585 -1.93915,-0.43154 -0.22125,-1.13572 12.07394,-4.94921 23.96836,-9.00723 35.95255,-13.51084 49.12732,-19.37148 97.57579,-41.60482 146.57514,-61.55948 33.02331,-13.44852 43.58207,-17.14565 77.58363,-29.96374 60.24162,-22.31619 119.74889,-43.3309 179.76345,-65.24467 28.20282,-10.298 35.93627,-13.24278 62.87489,-23.31675 7.04899,-2.7034 14.08692,-5.3703 21.14697,-8.1103 4.22341,-1.6391 8.45863,-3.304 12.69308,-5.023 0.28158,-0.1143 0.42876,-0.2606 0.64302,-0.391 5.12199,-0.4525 18.43753,-4.4967 15.36593,-1.3577 -2.97047,3.0357 -16.39931,7.0998 -24.53312,10.7261 -13.02468,5.80679 -25.94503,11.70801 -38.91755,17.562 -16.95184,7.95635 -34.07279,15.84143 -50.85558,23.86906 -39.13867,18.721 -82.79214,40.29219 -120.22109,59.33255 -34.84855,17.72768 -75.14278,38.7738 -107.76014,56.75731 -13.88009,7.65276 -26.85225,15.27016 -40.27838,22.90524 -15.75505,9.9274 -38.57896,22.97559 -43.76943,30.68743 -4.89345,7.27055 9.02249,4.83022 24.34201,1.67666 4.17023,-0.85846 9.62358,-2.67069 14.74749,-4.3115 16.31521,-5.22455 32.97963,-10.83495 49.46947,-16.25243 19.16053,-6.95054 38.15372,-13.56595 57.48163,-20.85163 58.95876,-22.22458 118.44091,-46.99433 176.98618,-72.86124 37.3607,-16.50699 51.65201,-23.34788 86.89798,-39.7499 16.64933,-7.98948 35.74833,-16.96819 51.80753,-25.27376 3.6661,-1.89609 7.97684,-3.98454 10.27144,-5.70901 1.1241,-0.84479 -5.80994,1.93347 -5.94994,2.46122 -0.4378,1.65125 9.55374,-0.49052 4.66044,2.40241 -10.53274,6.227 -26.06834,11.97331 -39.10254,17.95996 -58.14068,27.21214 -114.78458,55.03045 -170.43713,82.9747 -31.35206,15.74249 -75.34914,38.07846 -105.75025,54.24402 -13.2865,7.065 -25.86946,14.14258 -38.80424,21.21387 -15.57628,9.56131 -35.21114,20.23318 -39.42563,27.32653 -1.45583,2.4503 0.37559,3.7279 3.57477,4.16345 8.45083,1.15051 27.89056,-3.53948 45.7456,-8.6846 4.76015,-1.37168 10.44245,-3.7831 15.66368,-5.67466 14.10691,-4.87874 28.01668,-9.46059 42.32077,-14.63625 45.07337,-16.30893 97.59679,-37.67688 142.78124,-58.0112 6.93477,-3.12084 13.68954,-6.36438 20.5343,-9.54656 3.34337,-1.78929 6.68667,-3.57859 10.03001,-5.36788 -1.03399,0.20059 -3.85496,0.63099 -3.10193,0.60176 3.1807,-0.12347 15.17309,-3.61939 10.44719,-0.8869 -8.575,4.95801 -21.22909,8.66741 -31.76486,13.21265 -35.10049,15.14269 -51.42789,22.99757 -86.25905,39.11914 -14.51334,7.06395 -29.36151,14.05229 -43.54005,21.19188 -31.44562,15.83441 -67.9042,35.1022 -80.66903,48.4582 -8.02871,8.4005 -2.32002,8.415 2.82494,11.2802 4.74413,-0.091 8.73412,0.2471 14.23251,-0.2733 10.31855,-0.9765 23.62261,-3.689 37.70612,-7.1835 5.91842,-1.4686 188.7023,-25.41437 194.89556,-27.10179 l -204.11093,30.81839 0,0 c -5.96099,1.5797 -12.20163,3.3765 -17.88296,4.7391 -13.76898,3.3024 -26.87157,5.8501 -36.79369,6.6285 -5.44302,0.427 -9.32232,-0.023 -13.98329,-0.034 -4.7298,-3.2774 -10.25753,-3.3694 -1.17835,-12.3516 19.54075,-19.33216 83.8643,-49.79861 127.61036,-71.08515 34.68785,-16.20052 49.65369,-23.41478 84.31921,-38.78248 9.94468,-4.40861 20.14203,-9.41194 30.02812,-12.96262 15.4172,-5.53724 29.91081,-9.72106 43.69126,-13.5144 1.78847,-0.49232 1.23307,0.62379 -0.26033,1.55918 -3.14088,1.9673 -7.87089,3.9992 -11.80631,5.99879 -7.21836,3.30007 -14.36346,6.6621 -21.65511,9.90022 -45.89396,20.38089 -99.91189,42.33868 -145.56016,58.95228 -14.27571,5.19562 -28.19057,9.82802 -42.28585,14.74203 -23.41611,6.90745 -69.33342,21.44404 -91.59032,25.41745 -12.48976,2.22973 -23.31193,2.23489 -18.79774,-3.96713 5.53041,-7.59814 26.76668,-18.99053 42.91506,-28.64695 13.43548,-7.21588 26.58189,-14.44496 40.30645,-21.64762 30.09882,-15.79587 76.60373,-39.28139 107.18334,-54.64431 54.88203,-27.57224 110.39393,-55.04015 166.94398,-82.20066 12.28757,-5.82778 24.06984,-12.28341 36.86264,-17.48333 17.0013,-6.91054 33.65954,-12.34962 49.96054,-17.80775 1.6943,-0.56731 2.8995,-0.28041 1.6711,0.51978 -3.1207,2.0329 -7.9677,4.22425 -12.1518,6.30745 -7.5576,3.76291 -15.2592,7.49782 -23.01864,11.20366 -10.4123,4.97284 -20.9812,9.88044 -31.4718,14.82067 -36.23245,16.63898 -51.13161,23.64637 -89.29514,40.41243 -58.80278,25.83333 -118.4185,50.72195 -177.62837,73.20769 -19.0579,7.23749 -37.82683,13.85186 -56.74023,20.77779 -49.2515,16.42674 -63.11555,21.94421 -109.19216,32.75522 -8.90568,2.08955 -16.83627,3.24397 -21.28142,2.66186 -15.45071,-2.02336 24.38957,-24.73194 45.45486,-37.56119 13.88438,-7.77147 27.37494,-15.53515 41.65313,-23.3144 33.40404,-18.19966 73.90453,-39.21454 109.1414,-57.17496 37.01768,-18.8681 79.86519,-40.25013 118.27967,-58.92322 16.1927,-7.87119 32.6786,-15.64585 49.01788,-23.46877 12.2778,-5.69903 24.5137,-11.42263 36.83336,-17.09707 7.52656,-3.46671 15.1478,-7.65631 22.69547,-10.32191 13.30218,-4.698 24.45975,-7.063 36.79245,-10.6876 0.6995,-0.2056 -1.0889,0.1403 -1.8502,0.418 -4.6084,1.6808 -9.3163,3.5853 -13.96428,5.3499 -7.41539,2.8153 -14.81573,5.5927 -22.2236,8.389 -27.14252,10.03291 -36.49542,13.53224 -64.75683,23.78168 -59.88358,21.71771 -119.36009,42.70651 -179.66592,65.16966 -33.05415,12.53126 -43.94866,16.41479 -76.13923,29.49764 -49.18728,19.99063 -97.9064,41.99151 -147.14386,61.81526 -42.87015,16.5224 -41.5051,16.98552 -85.42675,28.23099 -5.39745,1.38193 -9.72423,1.79667 -11.80133,1.20521 -4.53464,-1.29124 3.75608,-7.75748 12.44971,-13.31489 6.37656,-4.07624 14.48996,-8.36734 21.73492,-12.55099 10.44004,-5.30732 20.66091,-10.65529 31.3201,-15.92193 25.81323,-12.75415 60.67955,-29.13554 86.89525,-41.36392 51.33425,-23.94499 103.20774,-47.5868 155.30359,-71.01247 14.56187,-6.57693 29.15025,-13.13296 43.68561,-19.73078 10.35874,-4.70199 20.64911,-9.45318 30.99231,-14.16665 15.8149,-7.20698 26.05082,-12.44229 40.59033,-14.22549 10.88732,-1.33528 -79.05412,23.79329 -50.15774,18.53875 -129.45805,49.10933 -259.30187,99.00505 -387.98202,146.31362 -32.85603,11.70891 -82.21714,29.78881 -114.49446,39.62238 -20.66004,6.29426 -40.65636,11.90263 -59.62287,16.73981 -13.05948,3.33068 -27.80783,5.87327 -27.99064,1.84048 -0.0735,-1.62268 4.26156,-4.87313 6.39233,-7.30969 5.79652,-3.87053 10.83323,-7.61915 17.38954,-11.61158 17.69004,-10.77223 41.45498,-23.25679 62.35975,-33.91828 49.19439,-25.08928 101.22238,-49.5293 153.15024,-73.73115 19.15049,-8.7874 38.23817,-17.61824 57.45152,-26.36222 29.01263,-13.20361 71.56168,-32.21957 101.33078,-45.62206 11.05249,-4.976 22.02337,-10.02474 33.1199,-14.95934 5.11633,-2.27522 10.48659,-4.96501 15.47616,-6.6512 9.35944,-3.16297 17.30846,-4.90184 25.96268,-7.35274 -6.33206,2.4645 -12.65276,4.87007 -18.99614,7.39348 -13.44035,5.34661 -62.75852,25.35813 -72.88755,29.45684 -56.62455,22.91314 -113.24997,45.74964 -169.85688,68.33078 -46.90424,18.56132 -74.07528,29.49066 -120.29177,47.11297 -16.91302,6.44891 -68.79803,26.05317 -87.55781,31.88556 -17.84727,5.54869 -35.01057,10.35602 -51.08397,14.37164 -5.70085,1.42424 -8.89038,1.14819 -13.33555,1.72227 -0.17045,-1.22115 -1.84337,-1.87217 -0.51137,-3.66344 3.38544,-4.55272 16.72214,-13.2718 26.00927,-19.08376 27.04075,-16.92232 59.62524,-34.4358 91.55533,-51.62661 13.67105,-7.23107 27.25209,-14.46755 41.01314,-21.69322 59.37668,-31.17761 120.41865,-62.24954 178.88,-93.4842 20.81883,-11.92481 5.66787,-4.40048 40.6401,-15.61111 2.96821,-0.9515 -5.31746,1.2968 -8.36819,2.3457 -5.83555,2.0065 -11.91895,4.3886 -17.92218,6.69391 -8.27194,3.17644 -54.46784,21.36521 -59.58279,23.37661 -44.79202,17.59774 -89.60517,35.2446 -134.36764,52.7061 -28.9106,11.27782 -64.77161,25.23702 -93.74662,36.14942 -12.64321,4.7616 -25.19187,9.31802 -37.78781,13.97703 -37.75827,13.27807 -34.26081,12.66906 -74.454841,23.06509 -4.19353,1.08464 -7.873833,1.67588 -10.158654,1.56348 -7.366725,-0.36241 6.917352,-9.52127 14.388549,-14.8414 4.877198,-3.11512 9.473916,-6.18884 14.631586,-9.34535 36.56115,-22.37553 81.14683,-45.33909 125.38998,-67.68212 20.72327,-10.34264 33.55807,-16.83997 54.49449,-26.94831 20.17951,-9.74289 40.92024,-19.32749 61.67054,-28.7768 l 26.81375,-6.41676 z"
         id="path3378"
         style="color:#000000;display:inline;overflow:visible;visibility:visible;fill:#333333;fill-opacity:1;fill-rule:nonzero;stroke:#333333;stroke-width:20.70716095;stroke-linecap:round;stroke-linejoin:round;stroke-miterlimit:4;stroke-dasharray:none;stroke-dashoffset:0;stroke-opacity:1;marker:none;enable-background:accumulate" />
      <g
         transform="matrix(0.79647947,0.60466557,-0.60466557,0.79647947,477.52125,-189.15103)"
         id="g3362">
        <path
           style="font-style:normal;font-weight:normal;font-size:175.34698486px;line-height:125%;font-family:Sans;letter-spacing:0px;word-spacing:0px;fill:#d45500;fill-opacity:1;stroke:none"
           d="m 49.634652,619.79676 c -12.292982,1.2e-4 -21.293763,4.90075 -27.043751,14.68303 -5.749913,9.72845 -8.630903,24.95948 -8.630979,45.7132 7.6e-5,20.86195 2.852788,36.20002 8.630979,45.98238 5.778342,9.78242 14.807426,14.65858 27.043751,14.65858 l 17.621582,0 0,-121.03719 -17.621582,0 z"
           id="path3270"
           inkscape:connector-curvature="0" />
        <path
           d="m 64.573378,617.2853 797.419742,0 85.04706,30.10335 4.62538,60.62587 -90.0744,35.33087 -797.017782,0 0,-126.06009"
           style="font-style:normal;font-weight:normal;font-size:175.34698486px;line-height:125%;font-family:Sans;letter-spacing:0px;word-spacing:0px;fill:#ffcc00;fill-opacity:1;stroke:none"
           id="path3284"
           inkscape:connector-curvature="0"
           sodipodi:nodetypes="ccccccc" />
        <path
           inkscape:connector-curvature="0"
           id="path3239"
           style="font-style:normal;font-weight:normal;font-size:175.34698486px;line-height:125%;font-family:Sans;letter-spacing:0px;word-spacing:0px;fill:#000000;fill-opacity:1;stroke:none"
           d="m 132.2808,617.2853 17.05567,0 0,126.06009 -17.05567,0 0,-126.06009" />
        <path
           inkscape:connector-curvature="0"
           id="path3241"
           style="font-style:normal;font-weight:normal;font-size:175.34698486px;line-height:125%;font-family:Sans;letter-spacing:0px;word-spacing:0px;fill:#000000;fill-opacity:1;stroke:none"
           d="m 181.22821,631.30136 0,98.02796 20.60192,0 c 17.39335,10e-6 30.11474,-3.94024 38.16421,-11.82078 8.10556,-7.88047 12.1584,-20.32041 12.1585,-37.31986 -1e-4,-16.88674 -4.05294,-29.24224 -12.1585,-37.06655 -8.04947,-7.88041 -20.77086,-11.82067 -38.16421,-11.82077 l -20.60192,0 m -17.05568,-14.01607 35.04015,0 c 24.42952,1.4e-4 42.35765,5.09432 53.78449,15.28257 11.42663,10.13219 17.14,26.00579 17.14013,47.62082 -1.3e-4,21.72776 -5.74165,37.68577 -17.22455,47.87413 -11.48314,10.18839 -29.38315,15.28257 -53.70007,15.28257 l -35.04015,0 0,-126.06009" />
        <path
           inkscape:connector-curvature="0"
           style="font-style:normal;font-weight:normal;font-size:175.34698486px;line-height:125%;font-family:Sans;letter-spacing:0px;word-spacing:0px;fill:#000000;fill-opacity:1;stroke:none"
           d="m 284.7153,617.27712 0,126.07553 537.13803,0 0,-14.36075 -519.09613,0 0,-45.67168 485.66858,0 0,-14.36075 -485.66858,0 0,-37.3216 506.74306,0 0,-14.36075 -524.78496,0 z"
           id="path3243" />
        <path
           style="font-style:normal;font-weight:normal;font-size:175.34698486px;line-height:125%;font-family:Sans;letter-spacing:0px;word-spacing:0px;fill:#000000;fill-opacity:1;stroke:none"
           d="m 862.89585,617.27785 0,19.63084 45.02458,12.54278 0,62.0051 -45.02458,12.54278 0,19.35348 175.50645,-52.45163 0,-21.07927 -175.50645,-52.54408 z"
           id="path3245"
           inkscape:connector-curvature="0" />
        <path
           d="m 63.836396,617.2853 43.029524,0 0,126.06009 -43.029524,0 0,-126.06009"
           style="font-style:normal;font-weight:normal;font-size:175.34698486px;line-height:125%;font-family:Sans;letter-spacing:0px;word-spacing:0px;fill:#b3b3b3;fill-opacity:1;stroke:none"
           id="path3349"
           inkscape:connector-curvature="0" />
        <path
           inkscape:connector-curvature="0"
           id="path3351"
           style="font-style:normal;font-weight:normal;font-size:175.34698486px;line-height:125%;font-family:Sans;letter-spacing:0px;word-spacing:0px;fill:#808080;fill-opacity:1;stroke:none"
           d="m 66.371374,617.2853 2.931322,0 0,126.06009 -2.931322,0 0,-126.06009" />
        <path
           d="m 71.44133,617.2853 2.931321,0 0,126.06009 -2.931321,0 0,-126.06009"
           style="font-style:normal;font-weight:normal;font-size:175.34698486px;line-height:125%;font-family:Sans;letter-spacing:0px;word-spacing:0px;fill:#808080;fill-opacity:1;stroke:none"
           id="path3353"
           inkscape:connector-curvature="0" />
        <path
           inkscape:connector-curvature="0"
           id="path3355"
           style="font-style:normal;font-weight:normal;font-size:175.34698486px;line-height:125%;font-family:Sans;letter-spacing:0px;word-spacing:0px;fill:#808080;fill-opacity:1;stroke:none"
           d="m 101.86106,617.2853 2.93132,0 0,126.06009 -2.93132,0 0,-126.06009" />
        <path
           d="m 96.791108,617.2853 2.931321,0 0,126.06009 -2.931321,0 0,-126.06009"
           style="font-style:normal;font-weight:normal;font-size:175.34698486px;line-height:125%;font-family:Sans;letter-spacing:0px;word-spacing:0px;fill:#808080;fill-opacity:1;stroke:none"
           id="path3357"
           inkscape:connector-curvature="0" />
        <g
           transform="matrix(0,-1,1,0,0,0)"
           style="font-style:normal;font-weight:normal;font-size:20.09367943px;line-height:125%;font-family:Sans;letter-spacing:0px;word-spacing:0px;fill:#000000;fill-opacity:1;stroke:none;stroke-width:1px;stroke-linecap:butt;stroke-linejoin:miter;stroke-opacity:1"
           id="text3359">
          <path
             inkscape:connector-curvature="0"
             d="m -694.11544,111.41528 1.9819,0 0,6.00456 7.20154,0 0,-6.00456 1.9819,0 0,14.64837 -1.9819,0 0,-6.97588 -7.20154,0 0,6.97588 -1.9819,0 0,-14.64837 z"
             id="path3392" />
          <path
             inkscape:connector-curvature="0"
             d="m -677.02404,119.06815 0,5.36682 3.17888,0 q 1.59926,0 2.36454,-0.65737 0.7751,-0.66717 0.7751,-2.03095 0,-1.37359 -0.7751,-2.02114 -0.76528,-0.65736 -2.36454,-0.65736 l -3.17888,0 z m 0,-6.02418 0,4.41511 2.9336,0 q 1.45208,0 2.1585,-0.53962 0.71623,-0.54944 0.71623,-1.66793 0,-1.10869 -0.71623,-1.65813 -0.70642,-0.54943 -2.1585,-0.54943 l -2.9336,0 z m -1.98189,-1.62869 5.06266,0 q 2.26643,0 3.49285,0.94189 1.22642,0.94189 1.22642,2.67851 0,1.34415 -0.62793,2.13887 -0.62793,0.79472 -1.84454,0.99095 1.4619,0.31397 2.26643,1.31472 0.81434,0.99095 0.81434,2.48228 0,1.96227 -1.33434,3.03171 -1.33435,1.06944 -3.797,1.06944 l -5.25889,0 0,-14.64837 z"
             id="path3394" />
        </g>
      </g>
    </g>
  </g>
</svg>
